<svg id="_001-chat" data-name="001-chat" xmlns="http://www.w3.org/2000/svg" width="20.376" height="19.592" viewBox="0 0 20.376 19.592">
  <g id="Group_815" data-name="Group 815" transform="translate(5.096 4.731)">
    <g id="Group_814" data-name="Group 814">
      <path id="Path_1570" data-name="Path 1570" d="M105.456,96H96.727a.727.727,0,0,0,0,1.455h8.728a.727.727,0,1,0,0-1.455Z" transform="translate(-96 -96)" fill="#4d2f82"/>
    </g>
  </g>
  <g id="Group_817" data-name="Group 817" transform="translate(4.913 7.886)">
    <g id="Group_816" data-name="Group 816">
      <path id="Path_1571" data-name="Path 1571" d="M102.546,160H96.727a.727.727,0,0,0,0,1.455h5.819a.727.727,0,0,0,0-1.455Z" transform="translate(-96 -160)" fill="#4d2f82"/>
    </g>
  </g>
  <g id="Group_819" data-name="Group 819">
    <g id="Group_818" data-name="Group 818">
      <path id="Path_1572" data-name="Path 1572" d="M17.241,0H3.135A3.138,3.138,0,0,0,0,3.135V18.808a.783.783,0,0,0,.451.71.8.8,0,0,0,.332.074.784.784,0,0,0,.5-.182l4.484-3.737H17.241a3.138,3.138,0,0,0,3.135-3.135v-9.4A3.138,3.138,0,0,0,17.241,0Zm1.567,12.539a1.569,1.569,0,0,1-1.567,1.567H5.486a.783.783,0,0,0-.5.182L1.567,17.136v-14A1.569,1.569,0,0,1,3.135,1.567H17.241a1.569,1.569,0,0,1,1.567,1.567Z" fill="#4d2f82"/>
    </g>
  </g>
</svg>
