<svg xmlns="http://www.w3.org/2000/svg" xmlns:xlink="http://www.w3.org/1999/xlink" width="21.666" height="20.69" viewBox="0 0 21.666 20.69">
  <defs>
    <clipPath id="clip-path">
      <rect id="Rectangle_1341" data-name="Rectangle 1341" width="21.666" height="20.69" transform="translate(0 0)" fill="none"/>
    </clipPath>
  </defs>
  <g id="Group_3458" data-name="Group 3458" transform="translate(0 0)">
    <g id="Group_3457" data-name="Group 3457" clip-path="url(#clip-path)">
      <path id="Path_1757" data-name="Path 1757" d="M2.884.75H18.916a2,2,0,0,1,2,2V17.94a2,2,0,0,1-2,2H7.018a2,2,0,0,1-2-2V4.56" fill="none" stroke="#b1bcda" stroke-linecap="round" stroke-linejoin="round" stroke-width="1.5"/>
      <path id="Path_1758" data-name="Path 1758" d="M2.884,8.369h0A2.133,2.133,0,0,0,5.018,6.235V2.884a2.134,2.134,0,0,0-4.268,0V6.235A2.133,2.133,0,0,0,2.884,8.369Z" fill="none" stroke="#b1bcda" stroke-linecap="round" stroke-linejoin="round" stroke-width="1.5"/>
      <line id="Line_212" data-name="Line 212" x2="8.8" transform="translate(8.623 9)" fill="none" stroke="#b1bcda" stroke-linecap="round" stroke-linejoin="round" stroke-width="1.5"/>
      <line id="Line_213" data-name="Line 213" x2="8.8" transform="translate(8.623 12.46)" fill="none" stroke="#b1bcda" stroke-linecap="round" stroke-linejoin="round" stroke-width="1.5"/>
      <line id="Line_214" data-name="Line 214" x2="4.982" transform="translate(8.623 15.92)" fill="none" stroke="#b1bcda" stroke-linecap="round" stroke-linejoin="round" stroke-width="1.5"/>
      <line id="Line_215" data-name="Line 215" x2="4.982" transform="translate(10.532 4.947)" fill="none" stroke="#b1bcda" stroke-linecap="round" stroke-linejoin="round" stroke-width="1.5"/>
    </g>
  </g>
</svg>
