<svg xmlns="http://www.w3.org/2000/svg" width="23.428" height="17.571" viewBox="0 0 23.428 17.571">
  <g id="_001-coupon" data-name="001-coupon" transform="translate(0 -59.411)">
    <path id="Path_1673" data-name="Path 1673" d="M21.231,76.982H2.2a2.2,2.2,0,0,1-2.2-2.2V71.125a.732.732,0,0,1,.732-.732A2.2,2.2,0,0,0,.732,66,.732.732,0,0,1,0,65.268V61.607a2.2,2.2,0,0,1,2.2-2.2H21.231a2.2,2.2,0,0,1,2.2,2.2v3.661A.732.732,0,0,1,22.7,66a2.2,2.2,0,0,0,0,4.393.732.732,0,0,1,.732.732v3.661A2.2,2.2,0,0,1,21.231,76.982Zm-19.767-5.2v3a.733.733,0,0,0,.732.732H21.231a.733.733,0,0,0,.732-.732v-3a3.661,3.661,0,0,1,0-7.174v-3a.733.733,0,0,0-.732-.732H2.2a.733.733,0,0,0-.732.732v3a3.661,3.661,0,0,1,0,7.174Z" fill="#b1bcda"/>
    <path id="Path_1674" data-name="Path 1674" d="M0,0H12.51V1.465H0Z" transform="translate(8.832 73.786) rotate(-69.444)" fill="#b1bcda"/>
    <path id="path-1_20_" d="M121.019,152.922a2.2,2.2,0,1,1,2.2-2.2,2.2,2.2,0,0,1-2.2,2.2Zm0-2.928a.732.732,0,1,0,.732.732A.733.733,0,0,0,121.019,149.993Z" transform="translate(-112.769 -84.479)" fill="#b1bcda"/>
    <path id="path-1_19_" d="M269.548,242.039a2.2,2.2,0,1,1,2.2-2.2A2.2,2.2,0,0,1,269.548,242.039Zm0-2.928a.732.732,0,1,0,.732.732A.733.733,0,0,0,269.548,239.11Z" transform="translate(-253.73 -169.055)" fill="#b1bcda"/>
  </g>
</svg>
