<svg xmlns="http://www.w3.org/2000/svg" width="20.582" height="20.328" viewBox="0 0 20.582 20.328">
  <g id="_002-edit-1" data-name="002-edit-1" transform="translate(0.15 -0.111)">
    <path id="Path_1671" data-name="Path 1671" d="M18.526,49.731a.5.5,0,0,0-.5.5v4.427a1.5,1.5,0,0,1-1.5,1.5H2.5a1.5,1.5,0,0,1-1.5-1.5V41.665a1.5,1.5,0,0,1,1.5-1.5H6.938a.5.5,0,1,0,0-1H2.5A2.5,2.5,0,0,0,0,41.665V54.657a2.5,2.5,0,0,0,2.5,2.493H16.527a2.5,2.5,0,0,0,2.5-2.493V50.23A.5.5,0,0,0,18.526,49.731Zm0,0" transform="translate(0 -36.86)" fill="#b1bcda" stroke="#b1bcda" stroke-width="0.3"/>
    <path id="Path_1672" data-name="Path 1672" d="M122.338.955a2.372,2.372,0,0,0-3.354,0l-9.4,9.4a.527.527,0,0,0-.135.232l-1.237,4.464a.527.527,0,0,0,.649.649l4.464-1.237a.527.527,0,0,0,.232-.135l9.4-9.4a2.374,2.374,0,0,0,0-3.354ZM110.729,10.7l7.7-7.7,2.482,2.482-7.7,7.7Zm-.5.995,1.983,1.983-2.743.76Zm11.978-7.513-.559.559L119.17,2.26l.559-.559a1.318,1.318,0,0,1,1.863,0l.619.618A1.32,1.32,0,0,1,122.212,4.183Zm0,0" transform="translate(-103.521)" fill="#b1bcda" stroke="#b1bcda" stroke-width="0.3"/>
  </g>
</svg>
