<svg xmlns="http://www.w3.org/2000/svg" xmlns:xlink="http://www.w3.org/1999/xlink" width="20.5" height="20.584" viewBox="0 0 20.5 20.584">
  <defs>
    <clipPath id="clip-path">
      <rect id="Rectangle_1334" data-name="Rectangle 1334" width="20.5" height="20.584" transform="translate(0 0)" fill="none" stroke="#b1bcda" stroke-width="1.5"/>
    </clipPath>
  </defs>
  <g id="Group_3452" data-name="Group 3452" transform="translate(0 0)">
    <g id="Group_3451" data-name="Group 3451" clip-path="url(#clip-path)">
      <path id="Path_1751" data-name="Path 1751" d="M10.25,9.75h0A2.879,2.879,0,0,1,7.371,6.871V.75h5.758V6.871A2.879,2.879,0,0,1,10.25,9.75Z" fill="none" stroke="#b1bcda" stroke-width="1.5"/>
      <path id="Path_1752" data-name="Path 1752" d="M3.591,9.75h0a3.013,3.013,0,0,1-2.8-3.585l.575-3.78A1.852,1.852,0,0,1,3.141.75h4.23L6.393,7.17A2.919,2.919,0,0,1,3.591,9.75Z" fill="none" stroke="#b1bcda" stroke-width="1.5"/>
      <path id="Path_1753" data-name="Path 1753" d="M16.909,9.75h0a3.013,3.013,0,0,0,2.8-3.585l-.575-3.78A1.852,1.852,0,0,0,17.359.75h-4.23l.978,6.42A2.919,2.919,0,0,0,16.909,9.75Z" fill="none" stroke="#b1bcda" stroke-width="1.5"/>
      <path id="Path_1754" data-name="Path 1754" d="M18.956,8.8v9.031a2,2,0,0,1-2,2H3.545a2,2,0,0,1-2-2V8.8" fill="none" stroke="#b1bcda" stroke-linecap="round" stroke-linejoin="round" stroke-width="1.5"/>
      <rect id="Rectangle_1333" data-name="Rectangle 1333" width="4.96" height="6.321" transform="translate(7.77 13.513)" fill="none" stroke="#b1bcda" stroke-linecap="round" stroke-linejoin="round" stroke-width="1.5"/>
    </g>
  </g>
</svg>
