<svg xmlns="http://www.w3.org/2000/svg" width="41.557" height="41.19" viewBox="0 0 41.557 41.19">
  <g id="Complete" transform="translate(0.75 0.75)">
    <g id="Group_3752" data-name="Group 3752" transform="translate(0)">
      <path id="Path_1936" data-name="Path 1936" d="M667.985,165.92a4.675,4.675,0,0,1-3.816,1.367l-10.279-1.172v9.631h27.922a5.648,5.648,0,0,0,3.908-1.531l7.655-6.925a1.813,1.813,0,0,0,.287-2.145,1.126,1.126,0,0,0-1.505-.52,1.078,1.078,0,0,0-.144.083l-6.282,4.178a4.051,4.051,0,0,1-2.752.684l-5.536-.671a1.221,1.221,0,0,1-.973-1.258c0-.762.52-1.34,1.111-1.269l3.115.378a1.5,1.5,0,0,0,1.561-1.123,1.933,1.933,0,0,0-1.072-2.514l-.031-.012-5.436-1.235a5.539,5.539,0,0,0-5.106,1.544Z" transform="translate(-653.89 -136.056)" fill="none" stroke="#b1bcda" stroke-linejoin="round" stroke-width="1.5"/>
      <line id="Line_483" data-name="Line 483" y2="21.629" transform="translate(5 9)" fill="none" stroke="#b1bcda" stroke-linejoin="round" stroke-width="1.5"/>
      <line id="Line_484" data-name="Line 484" y1="21.729" transform="translate(35 9)" fill="none" stroke="#b1bcda" stroke-linejoin="round" stroke-width="1.5"/>
      <path id="Path_2003" data-name="Path 2003" d="M668.89,138.056h-9.5a2.5,2.5,0,0,0-2.5,2.5v4.5h34v-4.5a2.5,2.5,0,0,0-2.5-2.5h-9.5" transform="translate(-653.89 -136.056)" fill="none" stroke="#b1bcda" stroke-linejoin="round" stroke-width="1.5"/>
      <path id="Path_2004" data-name="Path 2004" d="M668.89,165.056v-27.5a1.5,1.5,0,0,1,1.5-1.5h7a1.5,1.5,0,0,1,1.5,1.5v25.03" transform="translate(-653.89 -136.056)" fill="none" stroke="#b1bcda" stroke-linejoin="round" stroke-width="1.5"/>
    </g>
  </g>
</svg>
