<svg xmlns="http://www.w3.org/2000/svg" width="37.531" height="45.506" viewBox="0 0 37.531 45.506">
  <g id="Processing" transform="translate(0.766 0.75)">
    <path id="Path_1994" data-name="Path 1994" d="M513.647,165.99v9.252a2,2,0,0,0,1.468,1.917l11.073,3.116a6.185,6.185,0,0,0,3.349,0l11.072-3.116a2,2,0,0,0,1.468-1.917V165.99" transform="translate(-509.862 -136.506)" fill="none" stroke="#fff" stroke-linejoin="round" stroke-width="1.5"/>
    <path id="Path_1995" data-name="Path 1995" d="M544.39,165.524l-10.075,2.835a2.045,2.045,0,0,1-2.208-.76l-4.245-5.853,14.215-4,3.406,4.7A1.987,1.987,0,0,1,544.39,165.524Z" transform="translate(-509.862 -136.506)" fill="none" stroke="#fff" stroke-linejoin="round" stroke-width="1.5"/>
    <path id="Path_1996" data-name="Path 1996" d="M511.335,165.524l10.074,2.835a2.045,2.045,0,0,0,2.208-.76l4.245-5.853-14.215-4-3.406,4.7A1.988,1.988,0,0,0,511.335,165.524Z" transform="translate(-509.862 -136.506)" fill="none" stroke="#fff" stroke-linejoin="round" stroke-width="1.5"/>
    <path id="Path_1997" data-name="Path 1997" d="M543.832,151.811l-9.743-2.742a2.057,2.057,0,0,0-2,.51l-4.231,4.167,14.215,4,2.634-2.594A1.991,1.991,0,0,0,543.832,151.811Z" transform="translate(-509.862 -136.506)" fill="none" stroke="#fff" stroke-linejoin="round" stroke-width="1.5"/>
    <path id="Path_1998" data-name="Path 1998" d="M511.892,151.811l9.743-2.742a2.057,2.057,0,0,1,2,.51l4.231,4.167-14.215,4-2.634-2.594A1.991,1.991,0,0,1,511.892,151.811Z" transform="translate(-509.862 -136.506)" fill="none" stroke="#fff" stroke-linejoin="round" stroke-width="1.5"/>
    <line id="Line_477" data-name="Line 477" y2="18.76" transform="translate(18 25.24)" fill="none" stroke="#fff" stroke-linejoin="round" stroke-width="1.5"/>
    <ellipse id="Ellipse_255" data-name="Ellipse 255" cx="4.061" cy="4" rx="4.061" ry="4" transform="translate(13.938)" fill="none" stroke="#fff" stroke-linecap="round" stroke-linejoin="round" stroke-width="1.5"/>
    <ellipse id="Ellipse_256" data-name="Ellipse 256" cx="2.031" cy="2" rx="2.031" ry="2" transform="translate(27.138 6)" fill="none" stroke="#fff" stroke-linecap="round" stroke-linejoin="round" stroke-width="1.5"/>
    <ellipse id="Ellipse_257" data-name="Ellipse 257" cx="2.031" cy="2" rx="2.031" ry="2" transform="translate(4.8 6)" fill="none" stroke="#fff" stroke-linecap="round" stroke-linejoin="round" stroke-width="1.5"/>
  </g>
</svg>
