<svg xmlns="http://www.w3.org/2000/svg" width="36" height="36" viewBox="0 0 36 36"><defs><style>.a{fill:#da1414;}.b{fill:#fff;}</style></defs><g transform="translate(-1047 -227)"><circle class="a" cx="18" cy="18" r="18" transform="translate(1047 227)"/><g transform="translate(1052.727 234.364)"><path class="b" d="M29.911,15.918H25.28L22.257,9.912a.756.756,0,0,0-1.345.68l2.675,5.327h-7l2.66-5.289a.756.756,0,1,0-1.345-.68l-3.022,6.044H10.267A2.267,2.267,0,0,0,8,18.261v.34a1.927,1.927,0,0,0,1.927,1.851l2.69,8.47A3.022,3.022,0,0,0,15.5,31.03h9.188a3.022,3.022,0,0,0,2.879-2.108l2.69-8.47a1.927,1.927,0,0,0,1.927-1.927v-.34A2.267,2.267,0,0,0,29.911,15.918Zm.756,2.607a.408.408,0,0,1-.416.416,1.511,1.511,0,0,0-1.436,1.05l-2.682,8.477a1.511,1.511,0,0,1-1.451,1.05H15.5a1.511,1.511,0,0,1-1.451-1.05l-2.682-8.477a1.511,1.511,0,0,0-1.436-1.05.408.408,0,0,1-.416-.416v-.34a.756.756,0,0,1,.756-.756h3.876l-.574,1.148a1.118,1.118,0,0,0-.272.672.083.083,0,0,1,0,.038h0a1.133,1.133,0,1,0,1.98-.756l.559-1.1h8.508l.567,1.141a1.133,1.133,0,1,0,1.98.756h0a.083.083,0,0,1,0-.038,1.118,1.118,0,0,0-.272-.672l-.582-1.186h3.876a.756.756,0,0,1,.756.756Z" transform="translate(-8 -9.484)"/><path class="b" d="M23.756,25a.756.756,0,0,0-.756.756v4.533a.756.756,0,0,0,1.511,0V25.756A.756.756,0,0,0,23.756,25Z" transform="translate(-11.667 -13.277)"/><path class="b" d="M18.523,25.513A.757.757,0,0,0,17.087,26L18.6,30.53a.756.756,0,0,0,.68.514.945.945,0,0,0,.242,0,.756.756,0,0,0,.514-1Z" transform="translate(-10.212 -13.276)"/><path class="b" d="M29.5,25.037a.756.756,0,0,0-.96.476l-1.511,4.533a.756.756,0,0,0,.476,1,.945.945,0,0,0,.242,0,.756.756,0,0,0,.718-.514L29.98,26a.756.756,0,0,0-.476-.96Z" transform="translate(-12.64 -13.276)"/></g></g></svg>