<svg xmlns="http://www.w3.org/2000/svg" width="56" height="56" viewBox="0 0 56 56"><defs><style>.a{fill:#2689ca;}.b,.c{fill:#fff;}.c{stroke:#fff;stroke-width:0.5px;}</style></defs><circle class="a" cx="28" cy="28" r="28"/><g transform="translate(14.424 11.408)"><g transform="translate(0 18.563)"><path class="b" d="M1.464,11.379a1.038,1.038,0,0,0-.935,1.034V22.8a1.038,1.038,0,0,0,1.034,1.034H5.718A1.038,1.038,0,0,0,6.761,22.8H17.95a1.038,1.038,0,0,0,.369-.069l8.093-3.1A4.233,4.233,0,0,0,29.6,15.786a2.479,2.479,0,0,0-1.1-2.107,3.225,3.225,0,0,0-2.721-.176l-.055.014-7.969,3.052H16.18a3.549,3.549,0,0,0,.16-1.2,3.562,3.562,0,0,0-1.026-2.008,3.525,3.525,0,0,0-2.46-.943H6.761a1.038,1.038,0,0,0-1.042-1.034H1.563q-.05,0-.1,0Zm1.144,2.068H4.684v8.308H2.608ZM6.761,14.49h6.093a1.32,1.32,0,0,1,1.018.361,1.521,1.521,0,0,1,.416.844,1.5,1.5,0,0,1-.077.8c-.03.061-.029.071-.026.077H9.871a1.038,1.038,0,0,0,0,2.076H17.95a1.038,1.038,0,0,0,.369-.069l8.093-3.1c.632-.2.9-.1.979-.047s.132.107.132.353a2.287,2.287,0,0,1-1.74,1.87l-.055.016-7.969,3.05h-11V14.49Z" transform="translate(-0.529 -11.378)"/></g><g transform="translate(6.788)"><path class="c" d="M22.5,31.616H15.082A4.082,4.082,0,0,1,11,27.534V21.252a4.082,4.082,0,0,1,4.082-4.082H22.5a4.082,4.082,0,0,1,4.082,4.082v6.282A4.082,4.082,0,0,1,22.5,31.616ZM15.082,18.654a2.6,2.6,0,0,0-2.6,2.6v6.282a2.6,2.6,0,0,0,2.6,2.6H22.5a2.6,2.6,0,0,0,2.6-2.6V21.252a2.6,2.6,0,0,0-2.6-2.6Z" transform="translate(-11 -13.704)"/><path class="c" d="M28.906,16.851H27.422V11.975a2.661,2.661,0,0,0-2.661-2.661h-.616a2.661,2.661,0,0,0-2.661,2.661v4.876H20V11.975A4.149,4.149,0,0,1,24.145,7.83h.62a4.149,4.149,0,0,1,4.141,4.145Z" transform="translate(-16.66 -7.83)"/><circle class="c" cx="1.117" cy="1.117" r="1.117" transform="translate(10.387 7.848)"/><circle class="c" cx="1.117" cy="1.117" r="1.117" transform="translate(2.965 7.848)"/></g></g></svg>