<svg xmlns="http://www.w3.org/2000/svg" width="56" height="56" viewBox="0 0 56 56"><defs><style>.a{fill:#ffd52c;stroke:#ffd52c;stroke-width:3px;}.b{fill:#fff;}.c{stroke:none;}.d{fill:none;}</style></defs><g class="a"><circle class="c" cx="28" cy="28" r="28"/><circle class="d" cx="28" cy="28" r="26.5"/></g><g transform="translate(12.727 14.066)"><path class="b" d="M35.478,17.553H29.669l-3.79-7.533a.948.948,0,0,0-1.687.853l3.354,6.68H18.773l3.335-6.633a.948.948,0,1,0-1.687-.853l-3.79,7.58H10.843A2.843,2.843,0,0,0,8,20.49v.426a2.416,2.416,0,0,0,2.416,2.321l3.373,10.621A3.79,3.79,0,0,0,17.4,36.5H28.921a3.79,3.79,0,0,0,3.61-2.644L35.9,23.238a2.416,2.416,0,0,0,2.416-2.416V20.4A2.843,2.843,0,0,0,35.478,17.553Zm.948,3.269a.512.512,0,0,1-.521.521,1.9,1.9,0,0,0-1.8,1.317L30.74,33.291a1.9,1.9,0,0,1-1.819,1.317H17.4a1.9,1.9,0,0,1-1.819-1.317L12.216,22.66a1.9,1.9,0,0,0-1.8-1.317.512.512,0,0,1-.521-.521V20.4a.948.948,0,0,1,.948-.948H15.7l-.72,1.44a1.4,1.4,0,0,0-.341.843.1.1,0,0,1,0,.047h0a1.421,1.421,0,1,0,2.482-.948l.7-1.383H28.494l.711,1.431a1.421,1.421,0,1,0,2.482.948h0a.1.1,0,0,1,0-.047,1.4,1.4,0,0,0-.341-.843l-.73-1.488h4.861a.948.948,0,0,1,.948.948Z" transform="translate(-8 -9.484)"/><path class="b" d="M23.948,25a.948.948,0,0,0-.948.948v5.685a.948.948,0,1,0,1.9,0V25.948A.948.948,0,0,0,23.948,25Z" transform="translate(-8.787 -10.299)"/><path class="b" d="M18.9,25.644a.95.95,0,0,0-1.8.606l1.9,5.685a.947.947,0,0,0,.853.644,1.184,1.184,0,0,0,.3,0,.947.947,0,0,0,.644-1.251Z" transform="translate(-8.475 -10.299)"/><path class="b" d="M30.145,25.047a.947.947,0,0,0-1.2.6l-1.9,5.685a.948.948,0,0,0,.6,1.251,1.184,1.184,0,0,0,.3,0,.947.947,0,0,0,.9-.644l1.9-5.685a.948.948,0,0,0-.6-1.2Z" transform="translate(-8.996 -10.299)"/></g></svg>