<svg xmlns="http://www.w3.org/2000/svg" width="56" height="56" viewBox="0 0 56 56"><defs><style>.a{fill:none;}.b{fill:#dde1ec;}.c,.d{stroke:none;}.d{fill:#dde1ec;}</style></defs><g transform="translate(0)"><g transform="translate(0)"><g class="a"><path class="c" d="M28,0A28,28,0,1,1,0,28,28,28,0,0,1,28,0Z"/><path class="d" d="M 28 3 C 24.62369918823242 3 21.34999084472656 3.660579681396484 18.26979064941406 4.963390350341797 C 15.29317092895508 6.222400665283203 12.61925888061523 8.025409698486328 10.32233047485352 10.32233047485352 C 8.025409698486328 12.61925888061523 6.222400665283203 15.29317092895508 4.963390350341797 18.26979064941406 C 3.660579681396484 21.34999084472656 3 24.62369918823242 3 28 C 3 31.37630081176758 3.660579681396484 34.65000915527344 4.963390350341797 37.73020935058594 C 6.222400665283203 40.70682907104492 8.025409698486328 43.38074111938477 10.32233047485352 45.67766952514648 C 12.61925888061523 47.97459030151367 15.29317092895508 49.7775993347168 18.26979064941406 51.0366096496582 C 21.34999084472656 52.33942031860352 24.62369918823242 53 28 53 C 31.37630081176758 53 34.65000915527344 52.33942031860352 37.73020935058594 51.0366096496582 C 40.70682907104492 49.7775993347168 43.38074111938477 47.97459030151367 45.67766952514648 45.67766952514648 C 47.97459030151367 43.38074111938477 49.7775993347168 40.70682907104492 51.0366096496582 37.73020935058594 C 52.33942031860352 34.65000915527344 53 31.37630081176758 53 28 C 53 24.62369918823242 52.33942031860352 21.34999084472656 51.0366096496582 18.26979064941406 C 49.7775993347168 15.29317092895508 47.97459030151367 12.61925888061523 45.67766952514648 10.32233047485352 C 43.38074111938477 8.025409698486328 40.70682907104492 6.222400665283203 37.73020935058594 4.963390350341797 C 34.65000915527344 3.660579681396484 31.37630081176758 3 28 3 M 28 0 C 43.46397018432617 0 56 12.53602981567383 56 28 C 56 43.46397018432617 43.46397018432617 56 28 56 C 12.53602981567383 56 0 43.46397018432617 0 28 C 0 12.53602981567383 12.53602981567383 0 28 0 Z"/></g><g transform="translate(14.424 15.317)"><path class="b" d="M33.115,13.254l-7.8-3.394a9.333,9.333,0,0,0-7.484,0l-7.8,3.394A3.394,3.394,0,0,0,8,16.326V27.152a3.394,3.394,0,0,0,2.036,3.114l7.8,3.394a9.333,9.333,0,0,0,7.484,0l7.8-3.394a3.394,3.394,0,0,0,2.036-3.114V16.326A3.394,3.394,0,0,0,33.115,13.254ZM18.6,17.785l10.318-4.531,3.165,1.383-7.11,2.987A8.485,8.485,0,0,1,18.6,17.785Zm-4.242.068,1.273.543v1.553l-1.273-.577Zm1.544-1.2,10.428-4.556.475.212L16.621,16.792l-.212.093Zm2.613-5.312a7.636,7.636,0,0,1,3.063-.628,7.526,7.526,0,0,1,2.6.467L13.753,15.749l-2.681-1.137Zm-7.8,17.377A1.7,1.7,0,0,1,9.7,27.152V16.326a1.7,1.7,0,0,1,.059-.424l2.91,1.23v2.24a1.7,1.7,0,0,0,.993,1.519l1.273.577a1.682,1.682,0,0,0,2.4-1.536v-.848l.161.068A10.284,10.284,0,0,0,20.727,20V32.727a7.5,7.5,0,0,1-2.215-.585Zm22.739-1.561a1.7,1.7,0,0,1-1.018,1.561l-7.8,3.394a7.5,7.5,0,0,1-2.215.585V19.966a10.182,10.182,0,0,0,3.224-.848L33.4,15.834a1.7,1.7,0,0,1,.059.424Z" transform="translate(-8 -9.077)"/><path class="b" d="M30.573,22.339l-2.673.993a.848.848,0,1,0,.577,1.6l2.715-.993a.848.848,0,1,0-.577-1.6Z" transform="translate(-10.93 -11.078)"/></g></g></g></svg>