<svg xmlns="http://www.w3.org/2000/svg" width="56" height="56" viewBox="0 0 56 56"><defs><style>.a,.d{fill:none;}.a{stroke:#dde1ec;stroke-width:3px;}.b{fill:#dde1ec;}.c{stroke:none;}</style></defs><g transform="translate(0)"><g class="a" transform="translate(0)"><circle class="c" cx="28" cy="28" r="28"/><circle class="d" cx="28" cy="28" r="26.5"/></g><path class="b" d="M9.988,32.174l8.485,3.81a6.44,6.44,0,0,0,5.252,0l8.485-3.81A3.394,3.394,0,0,0,34.178,29.1V23.766l.95-.518a2.545,2.545,0,0,0,1.035-3.5L34.237,16.18h0l1.332-2.715A2.545,2.545,0,0,0,34.4,10.071l-8.29-3.844a2.427,2.427,0,0,0-3.139.959l-1.841,3.055L19.27,7.186A2.469,2.469,0,0,0,17.174,6a2.435,2.435,0,0,0-1.018.229L7.9,10.088a2.545,2.545,0,0,0-1.179,3.394l1.341,2.7h0L6.433,19.057a3.394,3.394,0,0,0,1.307,4.624l.288.153V29.1a3.394,3.394,0,0,0,1.96,3.072ZM21.128,22.9ZM10.683,30.6a1.7,1.7,0,0,1-.959-1.519v-4.3l5.939,3.233A3.3,3.3,0,0,0,20.2,26.523l.051-.1v8.341a4.514,4.514,0,0,1-1.078-.331ZM32.54,29.086a1.7,1.7,0,0,1-.959,1.519L23.1,34.414a4.463,4.463,0,0,1-1.086.331V26.421a3.462,3.462,0,0,0,2.817,1.96h.221a3.207,3.207,0,0,0,1.587-.416l5.939-3.25Zm2.2-8.485a.9.9,0,0,1,.11.67.849.849,0,0,1-.4.484h-.042l-8.663,4.726a1.485,1.485,0,0,1-.73.187,1.561,1.561,0,0,1-1.408-.9l-.781-1.587v-.246L33.55,18.454ZM22.011,22.476V12.345l10.233,4.887Zm.848-11.718L24.48,8.086a.747.747,0,0,1,.6-.39.73.73,0,0,1,.305.068l8.264,3.861a.8.8,0,0,1,.407.458.9.9,0,0,1-.059.7l-1.383,2.8-9.792-4.718ZM8.206,12.082a.8.8,0,0,1,.407-.458l8.264-3.861a.721.721,0,0,1,.3-.068.747.747,0,0,1,.645.373l1.612,2.673v.127l-9.8,4.684L8.248,12.786A.848.848,0,0,1,8.206,12.082Zm12.074.263V22.459L10.047,17.232ZM7.917,19.88l.8-1.425,10.716,5.481v.246l-.781,1.6a1.578,1.578,0,0,1-1.408.9,1.451,1.451,0,0,1-.721-.187l-7.976-4.31a1.678,1.678,0,0,1-.628-2.308Z" transform="translate(6.729 6.738)"/></g></svg>