<svg xmlns="http://www.w3.org/2000/svg" width="24" height="23.99" viewBox="0 0 24 23.99">
  <g id="Bank__Transfer" data-name="Bank _Transfer" transform="translate(-1 -1.01)">
    <path id="Path_2045" data-name="Path 2045" d="M24.994,7.736c0-.011.006-.02.006-.031a.706.706,0,0,0-.021-.1.732.732,0,0,0-.031-.153,1.4,1.4,0,0,0-.147-.244.737.737,0,0,0-.121-.1.71.71,0,0,0-.08-.066L13.351,1.087a.7.7,0,0,0-.068-.02A.815.815,0,0,0,13,1.01a.814.814,0,0,0-.284.057c-.022.009-.045.008-.066.02L1.4,7.042a.71.71,0,0,0-.08.066.737.737,0,0,0-.121.1.721.721,0,0,0-.079.117.721.721,0,0,0-.068.126.732.732,0,0,0-.031.153.706.706,0,0,0-.021.1c0,.011.006.02.006.031a.746.746,0,0,0,.03.146.741.741,0,0,0,.042.142c0,.01,0,.021.009.031s.029.025.04.042a.734.734,0,0,0,.2.211.707.707,0,0,0,.079.053.731.731,0,0,0,.343.094h22.5a.731.731,0,0,0,.343-.094.707.707,0,0,0,.079-.053.734.734,0,0,0,.2-.211c.011-.017.03-.024.04-.042s0-.021.009-.031a.741.741,0,0,0,.042-.142A.746.746,0,0,0,24.994,7.736ZM13,2.6l8.23,4.356H4.77Z" fill="#b1bcda"/>
    <path id="Path_2046" data-name="Path 2046" d="M10.3,19.46a.75.75,0,0,0,.75.75h3.891a.747.747,0,0,0,.264-1.447V10.7a.747.747,0,0,0-.264-1.447H11.055a.747.747,0,0,0-.264,1.447v8.064A.746.746,0,0,0,10.3,19.46Zm1.986-.75V10.753h1.418V18.71Z" fill="#b1bcda"/>
    <path id="Path_2047" data-name="Path 2047" d="M3.82,19.46a.75.75,0,0,0,.75.75H8.461a.747.747,0,0,0,.264-1.447V10.7a.747.747,0,0,0-.264-1.447H4.57A.747.747,0,0,0,4.307,10.7v8.064A.746.746,0,0,0,3.82,19.46Zm1.986-.75V10.753H7.225V18.71Z" fill="#b1bcda"/>
    <path id="Path_2048" data-name="Path 2048" d="M16.789,19.46a.75.75,0,0,0,.75.75H21.43a.747.747,0,0,0,.264-1.447V10.7a.747.747,0,0,0-.264-1.447H17.539a.747.747,0,0,0-.264,1.447v8.064A.746.746,0,0,0,16.789,19.46Zm1.986-.75V10.753h1.418V18.71Z" fill="#b1bcda"/>
    <path id="Path_2049" data-name="Path 2049" d="M1.983,21.847a.75.75,0,0,0,.75.75H23.267a.75.75,0,0,0,0-1.5H2.733A.75.75,0,0,0,1.983,21.847Z" fill="#b1bcda"/>
    <path id="Path_2050" data-name="Path 2050" d="M24.077,23.5H1.923a.75.75,0,0,0,0,1.5H24.077a.75.75,0,0,0,0-1.5Z" fill="#b1bcda"/>
  </g>
</svg>
