<svg xmlns="http://www.w3.org/2000/svg" width="17" height="19.781" viewBox="0 0 17 19.781">
  <g id="_001-file" data-name="001-file" transform="translate(-0.5)">
    <path id="Path_1660" data-name="Path 1660" d="M17.327,4.135,13.285.166A.58.58,0,0,0,12.879,0H2.662A2.165,2.165,0,0,0,.5,2.162V17.619a2.165,2.165,0,0,0,2.162,2.162H15.338A2.165,2.165,0,0,0,17.5,17.619V4.549A.58.58,0,0,0,17.327,4.135ZM13.459,1.961,15.5,3.969h-1.86a.185.185,0,0,1-.184-.184Zm1.879,16.661H2.662a1,1,0,0,1-1-1V2.162a1,1,0,0,1,1-1H12.3V3.785a1.345,1.345,0,0,0,1.343,1.343h2.7v12.49A1,1,0,0,1,15.338,18.622Zm0,0" fill="#4d2f82"/>
    <path id="Path_1661" data-name="Path 1661" d="M106.94,238H98.771a.58.58,0,0,0,0,1.159h8.169a.58.58,0,0,0,0-1.159Zm0,0" transform="translate(-93.917 -228.805)" fill="#4d2f82"/>
    <path id="Path_1662" data-name="Path 1662" d="M98.771,299.159h6.661a.58.58,0,0,0,0-1.159H98.771a.58.58,0,0,0,0,1.159Zm0,0" transform="translate(-93.917 -286.487)" fill="#4d2f82"/>
    <path id="Path_1663" data-name="Path 1663" d="M106.236,358H98.771a.58.58,0,0,0,0,1.159h7.465a.58.58,0,0,0,0-1.159Zm0,0" transform="translate(-93.917 -344.169)" fill="#4d2f82"/>
  </g>
</svg>
