<svg xmlns="http://www.w3.org/2000/svg" width="17.333" height="21.667" viewBox="0 0 17.333 21.667"><defs><style>.a{fill:#be1f93;}</style></defs><path class="a" d="M19.167,26.278h-13A2.167,2.167,0,0,1,4,24.111V16.167A2.167,2.167,0,0,1,6.167,14h13a2.167,2.167,0,0,1,2.167,2.167v7.944a2.167,2.167,0,0,1-2.167,2.167Zm-13-10.833a.722.722,0,0,0-.722.722v7.944a.722.722,0,0,0,.722.722h13a.722.722,0,0,0,.722-.722V16.167a.722.722,0,0,0-.722-.722Z" transform="translate(-4 -4.611)"/><path class="a" d="M19.278,11.833H7.722A.722.722,0,0,1,7,11.111V6.778A5.778,5.778,0,0,1,12.778,1h1.444A5.778,5.778,0,0,1,20,6.778v4.333A.722.722,0,0,1,19.278,11.833ZM8.444,10.389H18.556V6.778a4.333,4.333,0,0,0-4.333-4.333H12.778A4.333,4.333,0,0,0,8.444,6.778Z" transform="translate(-4.833 -1)"/><path class="a" d="M15.444,21.889a1.444,1.444,0,1,1,1.444-1.444A1.444,1.444,0,0,1,15.444,21.889ZM15.444,20.444Z" transform="translate(-6.778 -6)"/><rect class="a" width="2" height="3" transform="translate(7.667 15.167)"/></svg>