<svg id="_808669_bar_code_barcode_finance_product_scan_scan_icon_1_" data-name="808669_bar code_barcode_finance_product scan_scan_icon (1)" xmlns="http://www.w3.org/2000/svg" width="24" height="24" viewBox="0 0 24 24">
  <path id="Path_471" data-name="Path 471" d="M23,0H1A.945.945,0,0,0,0,1V23a.945.945,0,0,0,1,1H23a.945.945,0,0,0,1-1V1A.945.945,0,0,0,23,0ZM22,22H2V2H22Z"/>
  <rect id="Rectangle_744" data-name="Rectangle 744" width="2" height="13" transform="translate(4 4)"/>
  <rect id="Rectangle_745" data-name="Rectangle 745" width="1" height="13" transform="translate(7 4)"/>
  <rect id="Rectangle_746" data-name="Rectangle 746" width="1" height="13" transform="translate(9 4)"/>
  <rect id="Rectangle_747" data-name="Rectangle 747" width="1" height="13" transform="translate(14 4)"/>
  <rect id="Rectangle_748" data-name="Rectangle 748" width="1" height="13" transform="translate(16 4)"/>
  <rect id="Rectangle_749" data-name="Rectangle 749" width="2" height="13" transform="translate(18 4)"/>
  <rect id="Rectangle_750" data-name="Rectangle 750" width="2" height="13" transform="translate(11 4)"/>
  <rect id="Rectangle_751" data-name="Rectangle 751" width="2" height="2" transform="translate(4 18)"/>
  <rect id="Rectangle_752" data-name="Rectangle 752" width="2" height="2" transform="translate(14 18)"/>
  <rect id="Rectangle_753" data-name="Rectangle 753" width="1" height="2" transform="translate(7 18)"/>
  <rect id="Rectangle_754" data-name="Rectangle 754" width="1" height="2" transform="translate(17 18)"/>
  <rect id="Rectangle_755" data-name="Rectangle 755" width="1" height="2" transform="translate(19 18)"/>
  <rect id="Rectangle_756" data-name="Rectangle 756" width="4" height="2" transform="translate(9 18)"/>
</svg>
