<svg xmlns="http://www.w3.org/2000/svg" width="32.025" height="32.006" viewBox="0 0 32.025 32.006">
  <g id="Icon-Tag" transform="translate(0)">
    <path id="Fill-129" d="M-55.346-338.994a3.62,3.62,0,0,1-2.585-1.064l-10.111-10.111a3.625,3.625,0,0,1,0-5.17l13.532-13.532A8.068,8.068,0,0,1-49.416-371h8.667a3.7,3.7,0,0,1,3.649,3.649v8.667a8.068,8.068,0,0,1-2.129,5.094l-13.532,13.532a3.62,3.62,0,0,1-2.585,1.064Zm5.93-29.726a5.982,5.982,0,0,0-3.5,1.444l-13.532,13.532a1.331,1.331,0,0,0,0,1.9l10.111,10.111a1.33,1.33,0,0,0,1.9,0L-40.9-355.263a5.787,5.787,0,0,0,1.444-3.5v-8.667a1.363,1.363,0,0,0-1.368-1.368h-8.591Z" transform="translate(69.125 371)" fill="#fff"/>
    <path id="Fill-130" d="M-40.415-355.929a4.494,4.494,0,0,1-4.485-4.485,4.494,4.494,0,0,1,4.485-4.485,4.494,4.494,0,0,1,4.485,4.485,4.494,4.494,0,0,1-4.485,4.485Zm0-6.842a2.369,2.369,0,0,0-2.357,2.357,2.369,2.369,0,0,0,2.357,2.357,2.369,2.369,0,0,0,2.357-2.357,2.369,2.369,0,0,0-2.357-2.357Z" transform="translate(63.317 369.537)" fill="#fff"/>
  </g>
</svg>
