<svg xmlns="http://www.w3.org/2000/svg" width="30" height="30" viewBox="0 0 30 30">
  <g id="Group_974" data-name="Group 974" transform="translate(5785 -381)">
    <circle id="Ellipse_46" data-name="Ellipse 46" cx="15" cy="15" r="15" transform="translate(-5785 381)" fill="#be1f93"/>
    <g id="_8686405_ic_fluent_text_column_two_icon" data-name="8686405_ic_fluent_text_column_two_icon" transform="translate(-5778.442 390.5)">
      <path id="Path_515" data-name="Path 515" d="M18.236,5.9a.9.9,0,0,0-.9-.9H11.9a.9.9,0,0,0,0,1.809h5.427A.9.9,0,0,0,18.236,5.9Z" transform="translate(-1.352 -5)" fill="#fff"/>
      <path id="Path_516" data-name="Path 516" d="M10.236,5.9a.9.9,0,0,0-.9-.9H3.9a.9.9,0,1,0,0,1.809H9.331A.9.9,0,0,0,10.236,5.9Z" transform="translate(-3 -5)" fill="#fff"/>
      <path id="Path_517" data-name="Path 517" d="M18.236,8.9a.9.9,0,0,0-.9-.9H11.9a.9.9,0,0,0,0,1.809h5.427A.9.9,0,0,0,18.236,8.9Z" transform="translate(-1.352 -4.382)" fill="#fff"/>
      <path id="Path_518" data-name="Path 518" d="M10.236,8.9a.9.9,0,0,0-.9-.9H3.9a.9.9,0,1,0,0,1.809H9.331A.9.9,0,0,0,10.236,8.9Z" transform="translate(-3 -4.382)" fill="#fff"/>
      <path id="Path_519" data-name="Path 519" d="M18.236,11.9a.9.9,0,0,0-.9-.9H11.9a.9.9,0,0,0,0,1.809h5.427A.9.9,0,0,0,18.236,11.9Z" transform="translate(-1.352 -3.764)" fill="#fff"/>
      <path id="Path_520" data-name="Path 520" d="M10.236,11.9a.9.9,0,0,0-.9-.9H3.9a.9.9,0,1,0,0,1.809H9.331A.9.9,0,0,0,10.236,11.9Z" transform="translate(-3 -3.764)" fill="#fff"/>
      <path id="Path_521" data-name="Path 521" d="M18.236,14.9a.9.9,0,0,0-.9-.9H11.9a.9.9,0,1,0,0,1.809h5.427A.9.9,0,0,0,18.236,14.9Z" transform="translate(-1.352 -3.146)" fill="#fff"/>
      <path id="Path_522" data-name="Path 522" d="M10.236,14.9a.9.9,0,0,0-.9-.9H3.9a.9.9,0,1,0,0,1.809H9.331A.9.9,0,0,0,10.236,14.9Z" transform="translate(-3 -3.146)" fill="#fff"/>
    </g>
  </g>
</svg>
