<svg xmlns="http://www.w3.org/2000/svg" width="30" height="30" viewBox="0 0 30 30">
  <g id="Group_975" data-name="Group 975" transform="translate(5751 -381)">
    <circle id="Ellipse_45" data-name="Ellipse 45" cx="15" cy="15" r="15" transform="translate(-5751 381)" fill="#be1f93"/>
    <path id="XMLID_276_" d="M16.153,5.594A1.013,1.013,0,0,0,15.223,5H3.024a1.015,1.015,0,0,0-.931.594,1,1,0,0,0,.151,1.083h0l4.843,5.635V16.7a.509.509,0,0,0,.791.423l3.053-2.035a.51.51,0,0,0,.226-.423V12.313L16,6.678A1,1,0,0,0,16.153,5.594Z" transform="translate(-5744.822 385.893)" fill="#fff"/>
  </g>
</svg>
