<svg xmlns="http://www.w3.org/2000/svg" width="30" height="30" viewBox="0 0 30 30">
  <g id="Group_976" data-name="Group 976" transform="translate(5828 -381)">
    <circle id="Ellipse_47" data-name="Ellipse 47" cx="15" cy="15" r="15" transform="translate(-5828 381)" fill="#be1f93"/>
    <g id="_5402377_arrow_share_export_send_direction_icon" data-name="5402377_arrow_share_export_send_direction_icon" transform="translate(-5819 390.5)">
      <path id="Path_513" data-name="Path 513" d="M13.552,15.663H5.11A2.11,2.11,0,0,1,3,13.552V5.11A2.11,2.11,0,0,1,5.11,3H7.924a.7.7,0,1,1,0,1.407H5.11a.7.7,0,0,0-.7.7v8.442a.7.7,0,0,0,.7.7h8.442a.7.7,0,0,0,.7-.7V10.738a.7.7,0,1,1,1.407,0v2.814A2.11,2.11,0,0,1,13.552,15.663Z" transform="translate(-3 -3)" fill="#fff"/>
      <path id="Path_514" data-name="Path 514" d="M18.018,3.75V7.268a.7.7,0,0,1-.436.647.591.591,0,0,1-.267.056.7.7,0,0,1-.5-.2L15.521,6.529,12.151,9.9a.706.706,0,1,1-1-1L14.5,5.509,13.263,4.25a.7.7,0,0,1,.535-1.2h3.517a.514.514,0,0,1,.176,0,.26.26,0,0,1,.1,0,.661.661,0,0,1,.373.373.26.26,0,0,1,0,.1.513.513,0,0,1,.056.232Z" transform="translate(-5.355 -3.012)" fill="#fff"/>
    </g>
  </g>
</svg>
