<svg xmlns="http://www.w3.org/2000/svg" width="21.667" height="17.333" viewBox="0 0 21.667 17.333"><defs><style>.a{fill:#be1f93;}</style></defs><path class="a" d="M21.944,21.333H1.722A.722.722,0,0,1,1,20.611V4.722A.722.722,0,0,1,1.722,4H21.944a.722.722,0,0,1,.722.722V20.611A.722.722,0,0,1,21.944,21.333Zm-19.5-1.444H21.222V5.444H2.444Z" transform="translate(-1 -4)"/><path class="a" d="M11.833,13.656a2.167,2.167,0,0,1-1.408-.527L1.253,5.271a.722.722,0,1,1,.939-1.1l9.172,7.865a.722.722,0,0,0,.939,0l9.172-7.865a.722.722,0,0,1,.939,1.1l-9.136,7.858A2.167,2.167,0,0,1,11.833,13.656Z" transform="translate(-1 -4)"/><rect class="a" width="7.814" height="1.444" transform="matrix(0.832, -0.555, 0.555, 0.832, 0.319, 13.842)"/><rect class="a" width="1.444" height="7.814" transform="matrix(0.555, -0.832, 0.832, 0.555, 14.041, 10.712)"/></svg>