<svg xmlns="http://www.w3.org/2000/svg" width="72.808" height="49.406" viewBox="0 0 72.808 49.406">
  <g id="image" transform="translate(0 0)">
    <rect id="Rectangle_1272" data-name="Rectangle 1272" width="72.208" height="45.605" transform="translate(0.3 1.9)" fill="#fff"/>
    <path id="Path_101" data-name="Path 101" d="M68.293,20.806H.376A2.3,2.3,0,0,1-2,18.378V-26.173A2.382,2.382,0,0,1,.376-28.6H68.433a2.381,2.381,0,0,1,2.376,2.427V18.378A2.5,2.5,0,0,1,68.293,20.806ZM.376-26.315A.3.3,0,0,0,.1-26.03V18.378a.3.3,0,0,0,.279.286H68.433a.3.3,0,0,0,.28-.286V-26.173a.3.3,0,0,0-.28-.286H.376Z" transform="translate(2 28.6)" fill="#4d2f82"/>
    <path id="Path_102" data-name="Path 102" d="M4679.5,953.6h0a6.482,6.482,0,0,1-6.5-6.5,6.5,6.5,0,1,1,6.5,6.5Zm-.143-1.413Z" transform="translate(-4620.997 -932.8)" fill="#4d2f82"/>
    <path id="Polygon_20" data-name="Polygon 20" d="M23,0,46,30H0Z" transform="translate(1.196 17.495)" fill="#4d2f82"/>
    <path id="Polygon_21" data-name="Polygon 21" d="M15,0,30,18H0Z" transform="translate(41.196 29.495)" fill="#4d2f82"/>
  </g>
</svg>
