<svg xmlns="http://www.w3.org/2000/svg" width="15" height="16" viewBox="0 0 15 16">
  <g id="_004-writing" data-name="004-writing" transform="translate(-26.57)">
    <g id="Group_3759" data-name="Group 3759" transform="translate(26.57)">
      <g id="Group_3758" data-name="Group 3758">
        <path id="Path_2009" data-name="Path 2009" d="M114.549,200.658a.658.658,0,0,0-.658-.658h-6.775a.658.658,0,1,0,0,1.315h6.775A.658.658,0,0,0,114.549,200.658Z" transform="translate(-103.866 -193.778)" fill="#68779f"/>
        <path id="Path_2010" data-name="Path 2010" d="M107.117,280a.658.658,0,1,0,0,1.315h4.114a.658.658,0,1,0,0-1.315Z" transform="translate(-103.856 -271.289)" fill="#68779f"/>
        <path id="Path_2011" data-name="Path 2011" d="M31.368,14.75H29.183a1.281,1.281,0,0,1-1.307-1.25V2.5a1.281,1.281,0,0,1,1.307-1.25h8.032A1.281,1.281,0,0,1,38.521,2.5V6.344a.654.654,0,0,0,1.307,0V2.5A2.561,2.561,0,0,0,37.215,0H29.183A2.561,2.561,0,0,0,26.57,2.5v11A2.561,2.561,0,0,0,29.183,16h2.185a.626.626,0,1,0,0-1.25Z" transform="translate(-26.57)" fill="#68779f"/>
        <path id="Path_2012" data-name="Path 2012" d="M250.838,272.6a1.975,1.975,0,0,0-2.79,0l-3.611,3.6a.658.658,0,0,0-.165.274l-.786,2.589a.658.658,0,0,0,.8.825l2.655-.735a.658.658,0,0,0,.289-.168l3.6-3.6A1.975,1.975,0,0,0,250.838,272.6Zm-4.41,5.334-1.336.37.391-1.287,2.437-2.431.93.93Zm3.481-3.474-.127.127-.93-.93.127-.127a.658.658,0,0,1,.931.93Z" transform="translate(-236.415 -263.916)" fill="#68779f"/>
        <path id="Path_2013" data-name="Path 2013" d="M113.891,120h-6.775a.658.658,0,1,0,0,1.315h6.775a.658.658,0,1,0,0-1.315Z" transform="translate(-103.866 -116.267)" fill="#68779f"/>
      </g>
    </g>
  </g>
</svg>
