<svg xmlns="http://www.w3.org/2000/svg" width="16.031" height="16" viewBox="0 0 16.031 16"><defs><style>.a{fill:#be1f93;}</style></defs><g transform="translate(0 -0.064)"><path class="a" d="M2,8.046A3.506,3.506,0,0,1,5.51,4.54H9.7l-.761.2L8.3,5.366A1,1,0,0,0,9.722,6.784l2.5-2.5a1,1,0,0,0,0-1.418l-2.5-2.5A1,1,0,1,0,8.3,1.775l.586.586.776.175H5.51a5.51,5.51,0,0,0-4.117,9.171,1,1,0,1,0,1.5-1.332A3.506,3.506,0,0,1,2,8.046Z" transform="translate(0)"/><path class="a" d="M18.1,8.3a1.007,1.007,0,1,0-1.5,1.342A3.506,3.506,0,0,1,14,15.5H10l.621-.21.581-.581a1,1,0,0,0-1.418-1.418l-2.5,2.5a1,1,0,0,0,0,1.418l2.5,2.5A1,1,0,0,0,11.2,18.3l-.611-.611L10,17.5H14a5.51,5.51,0,0,0,4.1-9.2Z" transform="translate(-3.486 -3.945)"/></g></svg>