<svg xmlns="http://www.w3.org/2000/svg" width="329.76" height="235.21" viewBox="0 0 329.76 235.21">
  <g id="Group_3444" data-name="Group 3444" transform="translate(60.709 9.161)">
    <path id="Path_1684" data-name="Path 1684" d="M224.04,219.463H8.12A8.118,8.118,0,0,1,0,211.342V18.644A8.118,8.118,0,0,1,8.12,10.525H224.04a8.12,8.12,0,0,1,8.119,8.119v192.7a8.12,8.12,0,0,1-8.119,8.12" transform="translate(0.001 6.585)" fill="#b1bcda"/>
    <path id="Path_1685" data-name="Path 1685" d="M224.981,29.76v160.9a4.7,4.7,0,0,1-4.71,4.695H7.9A4.7,4.7,0,0,1,3.2,190.663V29.76A4.712,4.712,0,0,1,7.9,25.05H220.272a4.714,4.714,0,0,1,4.71,4.71" transform="translate(2 15.673)" fill="#fff"/>
    <path id="Path_1686" data-name="Path 1686" d="M113.9,20.028a4.993,4.993,0,1,1-4.994-4.994,4.994,4.994,0,0,1,4.994,4.994" transform="translate(65.018 9.407)" fill="#4d2f82"/>
    <path id="Path_1687" data-name="Path 1687" d="M134.487,20.028a4.993,4.993,0,1,1-4.994-4.994,4.994,4.994,0,0,1,4.994,4.994" transform="translate(77.898 9.407)" fill="#fff"/>
    <path id="Path_1688" data-name="Path 1688" d="M124.195,20.028a4.993,4.993,0,1,1-4.994-4.994,4.994,4.994,0,0,1,4.994,4.994" transform="translate(71.458 9.407)" fill="#b92790"/>
    <path id="Path_1689" data-name="Path 1689" d="M37,21.172H8.16a2.214,2.214,0,0,1,0-4.428H37a2.214,2.214,0,0,1,0,4.428" transform="translate(3.72 10.477)" fill="#fff"/>
    <path id="Path_1690" data-name="Path 1690" d="M109.369,139.874H62.85l.354-26.146h43.433s1.211,10.276,2.731,26.146" transform="translate(39.324 71.158)" fill="#4d2f82"/>
    <path id="Path_1691" data-name="Path 1691" d="M89.927,143.686H45.741C48.8,130.133,52.4,117.54,52.4,117.54l36.08-9.905Z" transform="translate(28.619 67.345)" fill="#4d2f82"/>
    <path id="Path_1692" data-name="Path 1692" d="M112.749,38.461s8.683,20.407,2.305,24.686a29.013,29.013,0,0,1-11.822,4.859S83.472,60.85,86.507,54.12c4.747-10.525,26.242-15.659,26.242-15.659" transform="translate(53.928 24.064)" fill="#ffc6bc"/>
    <path id="Path_1693" data-name="Path 1693" d="M34.383,47.328s-9.6-14.935-12.162-25.783-.987-15.114.569-15.72,4.677,5.828,4.677,5.828S25.336,1.391,28.772.125s6.3,7.535,6.3,7.535S35.066.019,38.194.8s7.033,17.379,7.033,17.379.788-8.779,3.214-8.206,6.186,12.541,5.365,17.338S49.754,38.32,49.754,38.32Z" transform="translate(13.054)" fill="#ffc6bc"/>
    <path id="Path_1694" data-name="Path 1694" d="M98.3,98.21S80.587,75.665,73.738,60.367,56,19.494,56,19.494L21.3,32.787S30.511,63.439,43.03,87.443,63.816,123.8,63.816,123.8s.473,51.425,1.182,52.37,19.993,5.235,41.648,4.035,26.377-4.271,27.56-4.979-8.975-68.09-8.975-68.09-9.92-8.7-26.928-8.923" transform="translate(13.326 12.197)" fill="#b92790"/>
    <path id="Path_1695" data-name="Path 1695" d="M33.777,28.332a.531.531,0,0,1-.527-.467c-1.481-11.957,3.815-16.686,4.041-16.881a.531.531,0,0,1,.7.8c-.05.046-5.088,4.6-3.682,15.948a.53.53,0,0,1-.463.592.423.423,0,0,1-.065,0" transform="translate(20.641 6.792)"/>
    <path id="Path_1696" data-name="Path 1696" d="M25.523,18.565a.531.531,0,0,1-.245-1l16.354-8.5a.532.532,0,0,1,.491.943L25.767,18.5a.525.525,0,0,1-.244.06" transform="translate(15.636 5.632)"/>
    <path id="Path_1697" data-name="Path 1697" d="M80.833,82s15.181,6.278,19.9-1.834,0-19.6,0-19.6l28.251-10.425s22.7,50.235,1.418,63.218c-26.526,16.182-55.467,6.283-55.467,6.283Z" transform="translate(46.889 31.37)" fill="#b92790"/>
    <path id="Path_1698" data-name="Path 1698" d="M73.009,65.864S79.621,77.236,91.4,72.157s-33.349,68.62-33.349,68.62l6.031-64.5Z" transform="translate(36.321 41.21)" fill="#b92790"/>
    <path id="Path_1699" data-name="Path 1699" d="M128.9,30.041l7.239,25.79-3.965.244-3.892.239-8.208.494-3.894.239-8.033.488-3.9.226-8.163.5-3.894.239-5.355.325-1.593-5.677,4.742-2.508,3.448-1.822,7.229-3.825,3.445-1.835,7.112-3.763,3.45-1.821,7.265-3.851,3.448-1.821Z" transform="translate(53.336 18.796)" fill="#4d2f82"/>
    <path id="Path_1700" data-name="Path 1700" d="M91.609,41.588l2.65,9.442-3.892.239-2.206-7.859Z" transform="translate(55.161 26.021)" fill="#f7c537"/>
    <path id="Path_1701" data-name="Path 1701" d="M98.173,38.106l4.037,14.382-3.9.224L94.729,39.942Z" transform="translate(59.27 23.843)" fill="#f7c537"/>
    <path id="Path_1702" data-name="Path 1702" d="M104.672,34.671l5.4,19.24-3.892.239-4.957-17.657Z" transform="translate(63.334 21.693)" fill="#f7c537"/>
    <path id="Path_1703" data-name="Path 1703" d="M111.262,31.182l6.787,24.179-3.892.241L107.814,33Z" transform="translate(67.457 19.51)" fill="#f7c537"/>
    <path id="Path_1704" data-name="Path 1704" d="M116.669,42.682c2,7.122,3.212,13.009,2.71,13.15s-2.531-5.518-4.529-12.64-3.212-13.009-2.71-13.15,2.53,5.518,4.529,12.64" transform="translate(70.093 18.795)" fill="#eceff7"/>
    <path id="Path_1705" data-name="Path 1705" d="M88.676,51.8l-1.632.458a.866.866,0,0,1-1.066-.6L84.051,44.8a.863.863,0,0,1,.6-1.066l1.632-.458a.864.864,0,0,1,1.066.6l1.926,6.864a.863.863,0,0,1-.6,1.066" transform="translate(52.568 27.054)" fill="#eceff7"/>
    <path id="Path_1706" data-name="Path 1706" d="M96.066,39.489s-5.238-8.606-8.127-3.881,2.7,22.087,8.416,21.574-.289-17.694-.289-17.694" transform="translate(54.53 21.393)" fill="#ffc6bc"/>
    <path id="Path_1707" data-name="Path 1707" d="M100.961,37.964s-5.238-8.606-8.127-3.882,2.7,22.088,8.416,21.576-.289-17.694-.289-17.694" transform="translate(57.593 20.438)" fill="#ffc6bc"/>
    <path id="Path_1708" data-name="Path 1708" d="M105.755,37.939s-3.269-8.294-6.5-4.61S98.279,53,103.34,53.413s2.416-15.473,2.416-15.473" transform="translate(61.16 20.263)" fill="#ffc6bc"/>
    <path id="Path_1709" data-name="Path 1709" d="M95.643,48.779a.532.532,0,0,1-.509-.377l-3.487-11.58a.532.532,0,1,1,1.018-.309l3.487,11.58a.532.532,0,0,1-.356.663.552.552,0,0,1-.153.023" transform="translate(57.328 22.61)"/>
    <path id="Path_1710" data-name="Path 1710" d="M100.225,46.559a.532.532,0,0,1-.515-.4l-2.489-9.9A.532.532,0,0,1,98.251,36l2.489,9.9a.532.532,0,0,1-.385.645.518.518,0,0,1-.13.016" transform="translate(60.819 22.272)"/>
    <path id="Path_1711" data-name="Path 1711" d="M86.722,55.056a4.412,4.412,0,0,0,6.87.08c3.4-4.131,7.47-10,3.724-10.58-3.438-.533-7.353,2.126-9.991,4.4a4.427,4.427,0,0,0-.6,6.1" transform="translate(53.668 27.834)" fill="#ffc6bc"/>
    <path id="Path_1712" data-name="Path 1712" d="M104.132,51.211a.528.528,0,0,1-.363-.143c-3.778-3.513-9.86-2.676-9.918-2.673a.52.52,0,0,1-.6-.45.531.531,0,0,1,.45-.6c.271-.037,6.647-.91,10.8,2.947a.532.532,0,0,1-.363.92" transform="translate(58.34 29.553)"/>
    <path id="Path_1713" data-name="Path 1713" d="M93.266,125.754,78.83,132.308c.013.177.044.4.072.68H77.84c-.06-.59-.1-.915-.1-.945a.523.523,0,0,1,.309-.546l14.779-6.717a.535.535,0,1,1,.442.974" transform="translate(48.635 78.044)" fill="#fff"/>
    <path id="Path_1714" data-name="Path 1714" d="M64.041,121.342c-1.668,8.208-5.831,12.224-9.271,14.173H52.452c3.367-1.314,8.608-4.872,10.556-14.394a.529.529,0,1,1,1.034.221" transform="translate(32.818 75.517)" fill="#fff"/>
    <path id="Path_1715" data-name="Path 1715" d="M99.776,80.185c-4.866,0-9.068-10.694-9.257-11.181a.53.53,0,0,1,.775-.642c1.884,1.17,11.261,7.16,10.908,10.211a1.73,1.73,0,0,1-1.353,1.434,3.339,3.339,0,0,1-1.075.179m-7.607-10c1.715,3.793,5.222,9.874,8.34,8.816.6-.2.629-.463.639-.549.18-1.567-4.752-5.483-8.979-8.267" transform="translate(56.614 42.722)" fill="#fff"/>
    <path id="Path_1716" data-name="Path 1716" d="M92.253,66.887a.531.531,0,0,1-.182-1.031l29.6-10.8a.53.53,0,1,1,.364,1l-29.6,10.8a.552.552,0,0,1-.182.033" transform="translate(57.388 34.425)" fill="#fff"/>
    <path id="Path_1717" data-name="Path 1717" d="M23.306,38.6a.532.532,0,0,1-.171-1.036L58.723,25.576a.532.532,0,1,1,.34,1.008L23.475,38.574a.55.55,0,0,1-.169.028" transform="translate(14.249 15.986)" fill="#fff"/>
    <path id="Path_1718" data-name="Path 1718" d="M89.5,105.214a.57.57,0,0,1-.115-.013.533.533,0,0,1-.4-.634c3.25-14.647-2.8-23.072-2.863-23.156a.531.531,0,1,1,.854-.631c.262.353,6.408,8.866,3.048,24.018a.533.533,0,0,1-.519.416" transform="translate(53.819 50.408)" fill="#fff"/>
    <path id="Path_1719" data-name="Path 1719" d="M80.782,56.323s13.061.624,13.8-11.9c.788-13.337-11.55-14.615-16.79-9.222s-4.271,10.876-4.271,10.876-3.651-3.292-7.636.751c-2.923,2.967-1.414,7.818-1.414,7.818s-6.737-.258-6.109,5.623a13.131,13.131,0,0,0,4.835,8.87Z" transform="translate(36.49 20.159)" fill="#4d2f82"/>
    <path id="Path_1720" data-name="Path 1720" d="M64.791,61.233l1.357,13.878s2.894,3.746,11.077,3.611c6.1-.1,8.088-1.674,8.088-1.674L83.782,70.1l-1.5-6.774L67.3,61.537Z" transform="translate(40.539 38.313)" fill="#ffc6bc"/>
    <path id="Path_1721" data-name="Path 1721" d="M66.337,61.42a4.552,4.552,0,0,0,.535,1.3c3.783,6.63,12.42,7.294,15.943,7.265l-1.5-6.773Z" transform="translate(41.506 38.43)"/>
    <path id="Path_1722" data-name="Path 1722" d="M86.384,44.567s8.987,16.689,7.06,26.637-10.912,9.148-16.367,7.7a17.6,17.6,0,0,1-8.184-4.493,7.5,7.5,0,0,1-8.5-2.245c-3.692-4.334-2.087-9.79.641-11.233s6.259.322,6.259.322l-3.048-4.815s8.985-26.476,22.143-11.874" transform="translate(36.434 25.136)" fill="#ffc6bc"/>
    <path id="Path_1723" data-name="Path 1723" d="M66.685,59.673a.547.547,0,0,1-.267-.072l-6.693-3.885a.532.532,0,0,1,.533-.92l6.695,3.885a.532.532,0,0,1-.268.992" transform="translate(37.204 34.241)"/>
    <path id="Path_1724" data-name="Path 1724" d="M60.6,59.036A.532.532,0,0,1,60.418,58l4.014-1.461a.532.532,0,0,1,.364,1L60.782,59a.552.552,0,0,1-.182.033" transform="translate(37.583 35.358)"/>
    <path id="Path_1725" data-name="Path 1725" d="M69.009,49.236a.541.541,0,0,1-.281-.081.53.53,0,0,1-.167-.733,4.285,4.285,0,0,1,5.287-1.941.531.531,0,0,1-.41.98,3.233,3.233,0,0,0-3.978,1.527.533.533,0,0,1-.45.249" transform="translate(42.846 28.904)"/>
    <path id="Path_1726" data-name="Path 1726" d="M78.685,47.489a.54.54,0,0,1-.3-.091,2.808,2.808,0,0,0-3.116-.013.525.525,0,0,1-.743-.115.531.531,0,0,1,.115-.741,3.831,3.831,0,0,1,4.337-.013.533.533,0,0,1-.3.974" transform="translate(46.568 28.681)"/>
    <path id="Path_1727" data-name="Path 1727" d="M76.944,60.487a.547.547,0,0,1-.1-.01.531.531,0,0,1-.419-.624,10.523,10.523,0,0,0-2.05-8.647.532.532,0,1,1,.785-.717,11.453,11.453,0,0,1,2.307,9.567.53.53,0,0,1-.52.431" transform="translate(46.447 31.482)"/>
    <path id="Path_1728" data-name="Path 1728" d="M78.068,52.561a.532.532,0,0,1-.5-.343l-1.179-3.1a.532.532,0,0,1,.993-.379l1.18,3.1a.533.533,0,0,1-.309.686.544.544,0,0,1-.189.034" transform="translate(47.776 30.283)"/>
    <path id="Path_1729" data-name="Path 1729" d="M72.677,53.2a.53.53,0,0,1-.5-.343L71,49.754a.532.532,0,0,1,.995-.379l1.18,3.1a.532.532,0,0,1-.5.72" transform="translate(44.401 30.68)"/>
    <path id="Path_1730" data-name="Path 1730" d="M87.256,49.945a5.886,5.886,0,0,0-5.244-2.328,7.524,7.524,0,0,0-5.248,2.951s2.089,5.682-2.315,9.24-8.133,3.047-8.133,3.047l-3.534-.883-2.993-4.745,8.837-11.612,12.126-8,7.094,5.277Z" transform="translate(37.408 23.536)" fill="#4d2f82"/>
    <path id="Path_1731" data-name="Path 1731" d="M75.9,60.019a5.118,5.118,0,0,1-4.5-2.458.532.532,0,0,1,.915-.543A4.212,4.212,0,0,0,76.578,58.9a.532.532,0,1,1,.2,1.044,4.587,4.587,0,0,1-.883.078" transform="translate(44.628 35.513)"/>
    <path id="Path_1732" data-name="Path 1732" d="M81.667,59.6c-2.928,0-5.311-2.7-5.311-6.018s2.383-6.018,5.311-6.018,5.311,2.7,5.311,6.018S84.595,59.6,81.667,59.6m0-10.973c-2.341,0-4.246,2.222-4.246,4.955s1.905,4.955,4.246,4.955,4.248-2.222,4.248-4.955-1.905-4.955-4.248-4.955" transform="translate(47.775 29.761)" fill="#fff"/>
    <path id="Path_1733" data-name="Path 1733" d="M73.721,60.435a6.017,6.017,0,1,1,6.018-6.017,6.024,6.024,0,0,1-6.018,6.017m0-10.972a4.954,4.954,0,1,0,4.955,4.955,4.959,4.959,0,0,0-4.955-4.955" transform="translate(42.361 30.283)" fill="#fff"/>
    <path id="Path_1734" data-name="Path 1734" d="M78.18,52H74.825a.532.532,0,1,1,0-1.063H78.18a.532.532,0,1,1,0,1.063" transform="translate(46.484 31.872)" fill="#fff"/>
    <path id="Path_1735" data-name="Path 1735" d="M61.834,53.722a.532.532,0,0,1-.2-1.026c4.05-1.632,10.4-.873,10.669-.84a.532.532,0,0,1-.13,1.055c-.062-.007-6.348-.754-10.143.772a.538.538,0,0,1-.2.039" transform="translate(38.356 32.317)" fill="#fff"/>
    <path id="Path_1736" data-name="Path 1736" d="M77.574,74.017A21.321,21.321,0,0,1,64.72,69.788a.531.531,0,1,1,.629-.857c10.756,7.9,22.356,1.743,22.473,1.681a.531.531,0,0,1,.509.933,24.866,24.866,0,0,1-10.757,2.471" transform="translate(40.358 43.065)" fill="#fff"/>
    <rect id="Rectangle_1328" data-name="Rectangle 1328" width="232.159" height="226.048" fill="none"/>
    <g id="Group_3446" data-name="Group 3446" transform="translate(-60.71 -9.161)">
      <path id="Path_1737" data-name="Path 1737" d="M339.573,193a6.721,6.721,0,0,1-6.02-3.5,6.424,6.424,0,0,1-.623-1.538c-.036-.141-.061-.285-.093-.427-.14-.595-.051-1.714-.05,1.289,0,2.939-.038,1.519.172.731a7.584,7.584,0,0,1,1.779-3.134c4.086-4.454,10.869-4.008,16.085-2.134a7.9,7.9,0,0,1,3.34,1.917,3.877,3.877,0,0,1,.756,1.525q0-.933,0-1.866.156-2.836-.013-1.766c-.037.13-.053.266-.092.4a3.575,3.575,0,0,1-.382.848c-1.411,2.294-4.48,2.322-6.628,1.129a6.606,6.606,0,0,1-2.633-2.781,8.465,8.465,0,0,1-.671-1.8,9.937,9.937,0,0,1-.2-1c-.024-.167-.044-.336-.06-.5-.191-2.039-.15,4.346-.03,2.875a12.879,12.879,0,0,1,2.9-7.256c4.035-4.882,11.2-6.176,16.977-3.953a18.752,18.752,0,0,1,.023-2.266,9.854,9.854,0,0,0-.023-2.266c-5.9-2.27-13.225-.864-17.21,4.242a13.474,13.474,0,0,0-2.7,8.53c-.021,3.446-.317,7.437,2.549,9.95,2.085,1.828,5.824,2.357,7.591-.191,1.029-1.485.661-3.651.651-5.331a5.74,5.74,0,0,0-.213-2.113,3.783,3.783,0,0,0-1.378-1.621,14.248,14.248,0,0,0-4.521-1.851,20.144,20.144,0,0,0-5.233-.748,11.987,11.987,0,0,0-8.645,3.247,7.487,7.487,0,0,0-2.162,4.046,20.52,20.52,0,0,0-.1,3.148,18.488,18.488,0,0,0,.113,3.239,6.779,6.779,0,0,0,6.736,5.467c.09,0-.022-4.532,0-4.533" transform="translate(-103.773 -46.926)" fill="#f7c537"/>
      <path id="Path_1738" data-name="Path 1738" d="M522.416,0c-4.337,4.085-11.368,3.057-15.471,7.5a6.908,6.908,0,0,0-1.866,3.867,30.143,30.143,0,0,0-.051,3.326,10.388,10.388,0,0,0,.191,2.885c.83,2.8,4.084,3.216,6.543,2.807,1.884-.313,3.861-.952,5.768-.432a4.469,4.469,0,0,1,1.835.99c1.425,1.3,1.013,4.134,1.073-1.246q.008-.326.016-.651c-.18,2.17-2.016,3.658-3.607,4.91a45.124,45.124,0,0,1-5.993,3.99c-.961.534-1.957.995-2.934,1.5a5.081,5.081,0,0,0-2.057,1.665,2.266,2.266,0,0,0-.328.969,26.6,26.6,0,0,0-.028,2.934c0,.969-.178,2.155.5,2.956,1.623,1.91,4.384.319,6.414.934-.068-.02.022-2.043.022-2.225a11.446,11.446,0,0,0-.022-2.225c-1.519-.46-3,.237-4.525.011a2.493,2.493,0,0,1-2.364-2.188v4.292c.078-1.265,1.277-2.085,2.294-2.623,1.37-.725,2.767-1.375,4.1-2.167a45.132,45.132,0,0,0,4.032-2.693,17.531,17.531,0,0,0,3.395-3.013,5.74,5.74,0,0,0,1.117-3.912c.01-1.7.411-3.957-.816-5.368-2.13-2.449-5.628-1.177-8.323-.793-2.8.4-6.039-.623-6.282-3.869,0,.1.007.2.011.3q-.205,5.19.045,3.13c.015-.084.03-.168.045-.252a6.12,6.12,0,0,1,.2-.74,6.876,6.876,0,0,1,.6-1.3,8.062,8.062,0,0,1,1.61-1.929,13.585,13.585,0,0,1,4.508-2.485c3.548-1.264,7.487-1.714,10.34-4.4a3.1,3.1,0,0,0,.016-.651c.005-.524.007-1.05.007-1.574s0-1.049-.007-1.573A2.69,2.69,0,0,1,522.416,0" transform="translate(-192.681)" fill="#4d2f82"/>
      <path id="Path_1739" data-name="Path 1739" d="M.033,124.9l8.719,5.581c1.322.847,2.708,1.638,3.963,2.583a6.89,6.89,0,0,1,1.355,1.284,3.8,3.8,0,0,1,.461.759,2.961,2.961,0,0,1,.149.412q.433,1.92.084-3.068c.005-.226.011-.453.016-.679-.266,2.836-3.409,3.532-5.655,4.157a7.132,7.132,0,0,0-3.215,1.653,4.142,4.142,0,0,0-1.017,3.306c-.007,1.134-.024,2.274.014,3.407a3.622,3.622,0,0,0,.422,1.639,12.606,12.606,0,0,0,2.679,2.97l3.386,3.2a32.22,32.22,0,0,1,2.957,2.939,6.4,6.4,0,0,1,1.087,1.839,7.451,7.451,0,0,1,.256,1.059q-.006-1.778-.013-3.557l-.051.266a5.162,5.162,0,0,1-.167.521,2.708,2.708,0,0,1-3.061,1.676c.057.015-.023,2.135-.023,2.32a13.388,13.388,0,0,0,.023,2.32c1.862.48,3.23-1.257,3.323-2.951.084-1.526.051-3.08.006-4.608a5.335,5.335,0,0,0-.834-2.768c-1.146-1.813-3.011-3.228-4.554-4.688l-2.335-2.208a17.03,17.03,0,0,1-2.341-2.426,4.389,4.389,0,0,1-.592-1.116c-.547-1.636,1.159-.519-.111,3.167.049-.145.07-.293.124-.44a4.154,4.154,0,0,1,1.869-2.024c1.771-1.048,3.954-1.03,5.728-2.067a4.536,4.536,0,0,0,1.75-1.738,6.683,6.683,0,0,0,.37-3.145,12.562,12.562,0,0,0-.159-3.7,4.638,4.638,0,0,0-1.557-2.057,61.49,61.49,0,0,0-6.245-4.1L.033,120.257c.016.011-.017.771-.016.68-.006.546-.007,1.093-.007,1.64s0,1.094.007,1.64c0,.1-.047.638.016.679" transform="translate(0 -41.124)" fill="#f7c537"/>
      <path id="Path_1740" data-name="Path 1740" d="M12.02,59.17a31.936,31.936,0,0,0-.091,3.637,22.143,22.143,0,0,0,.118,3.223,10.222,10.222,0,0,0,1.8,4.331c2.033,2.894,5.162,4.8,8.1,6.648-.015-.01.017-.745.016-.656q.009-.792.007-1.584c0-.528,0-1.056-.007-1.585,0-.091.045-.618-.016-.656A33.456,33.456,0,0,1,15,67.292a12.271,12.271,0,0,1-2.152-3.139,9.7,9.7,0,0,1-.656-1.879,8.659,8.659,0,0,1-.17-.936c-.022-.186-.034-.372-.05-.558q-.13,5.264.013,3.272.012-.2.039-.4a20.022,20.022,0,0,0,.022-2.24,20.376,20.376,0,0,1-.022-2.241" transform="translate(15.928 -20.234)" fill="#4d2f82"/>
      <path id="Path_1741" data-name="Path 1741" d="M329.09,129.791c-3.249,1.181-6.81,2.551-8.911,5.46a8.462,8.462,0,0,0-1.64,4.49c-.1,1.96-.084,3.961,0,5.922a6.346,6.346,0,0,0,.5,2.258,3.935,3.935,0,0,1,.019-.815c.007-.656.009-1.312.009-1.968s0-1.312-.009-1.968a2.649,2.649,0,0,0-.019-.815,6.121,6.121,0,0,1-.329-.972c-.036-.15-.066-.3-.091-.453-.014-.091-.026-.182-.036-.274q-.259-2.4-.022,4.451a8.1,8.1,0,0,1,.453-2.1,9.175,9.175,0,0,1,2.239-3.422c2.169-2.1,5.054-3.216,7.844-4.23a6.461,6.461,0,0,0,.02-.815q.01-.983.008-1.968c0-.656,0-1.312-.008-1.968,0-.086-.043-.807-.02-.815" transform="translate(-160.894 -113.001)" fill="#f7c537"/>
      <path id="Path_1742" data-name="Path 1742" d="M496.8,156.907a11.182,11.182,0,0,1,8.008.147,7.535,7.535,0,0,1,4.083,4.668c.04.136.076.274.108.413.012.054.022.109.034.163q.209,1.122-.263-1.848-.386-2.956-.278-1.9a8.4,8.4,0,0,1,.027.918,7.773,7.773,0,0,1-.288,1.81,2.725,2.725,0,0,0,.081.673q.11.811.228,1.621c.078.54.157,1.08.241,1.619a2.393,2.393,0,0,1,.113.669,10.018,10.018,0,0,0,.08-4.208c-.271-1.96-.363-4.122-1.32-5.909a7.984,7.984,0,0,0-6.025-4,12.681,12.681,0,0,0-5.494.578,21.718,21.718,0,0,0,.309,2.295c.024.172.393,2.275.355,2.287" transform="translate(-189.654 -51.859)" fill="#b92790"/>
      <path id="Path_1743" data-name="Path 1743" d="M156.631,193.811a16.132,16.132,0,0,0-1.545,4.466,20.792,20.792,0,0,0-.086,2.955,10.106,10.106,0,0,0,.179,2.481,4.07,4.07,0,0,0,2.68,2.961,5.729,5.729,0,0,0,3.9-.264,15.451,15.451,0,0,0,4.228-3.026,2.152,2.152,0,0,0,.011-.452q0-.545,0-1.09t0-1.09a1.889,1.889,0,0,1-.011-.451c-2.252,2.031-5.326,4.561-8.557,3.126a3.789,3.789,0,0,1-1.669-1.44,4.547,4.547,0,0,1-.5-1.091c-.209-.667-.23-2.523-.231-.072,0,2.5.036.555.178-.1a11.893,11.893,0,0,1,.362-1.274,25.826,25.826,0,0,1,1.067-2.553,1.758,1.758,0,0,0,.011-.451c0-.364,0-.727,0-1.091s0-.726,0-1.09a1.564,1.564,0,0,1-.011-.451" transform="translate(-53 -66.276)" fill="#b92790"/>
    </g>
  </g>
</svg>
