<svg xmlns="http://www.w3.org/2000/svg" width="12.5" height="13.591" viewBox="0 0 12.5 13.591"><defs><style>.a{fill:#be1f93;stroke:#be1f93;stroke-linecap:round;stroke-width:0.5px;}</style></defs><path class="a" d="M4.364,261.182v4.909a.263.263,0,0,1-.273.273H3.546a.263.263,0,0,1-.273-.273v-4.909a.263.263,0,0,1,.273-.273h.545a.263.263,0,0,1,.273.273Zm2.182,0v4.909a.263.263,0,0,1-.273.273H5.727a.263.263,0,0,1-.273-.273v-4.909a.263.263,0,0,1,.273-.273h.545a.263.263,0,0,1,.273.273Zm2.182,0v4.909a.263.263,0,0,1-.273.273H7.909a.263.263,0,0,1-.273-.273v-4.909a.263.263,0,0,1,.273-.273h.545a.263.263,0,0,1,.273.273Zm1.091,6.171v-8.08H2.182v8.08a.968.968,0,0,0,.06.345.765.765,0,0,0,.124.23q.064.072.089.072H9.546q.026,0,.089-.072a.765.765,0,0,0,.124-.23A.968.968,0,0,0,9.818,267.352Zm-5.727-9.171H7.909l-.409-1a.241.241,0,0,0-.145-.094h-2.7a.241.241,0,0,0-.145.094Zm7.909.273V259a.263.263,0,0,1-.273.273h-.818v8.08a1.935,1.935,0,0,1-.4,1.223,1.188,1.188,0,0,1-.963.516H2.455a1.2,1.2,0,0,1-.963-.5,1.865,1.865,0,0,1-.4-1.206v-8.114H.273A.263.263,0,0,1,0,259v-.545a.263.263,0,0,1,.273-.273H2.906l.6-1.423a1.181,1.181,0,0,1,.46-.537A1.2,1.2,0,0,1,4.636,256H7.364a1.2,1.2,0,0,1,.673.222,1.181,1.181,0,0,1,.46.537l.6,1.423h2.634a.263.263,0,0,1,.273.273Z" transform="translate(0.25 -255.75)"/></svg>