<svg id="Group_3757" data-name="Group 3757" xmlns="http://www.w3.org/2000/svg" xmlns:xlink="http://www.w3.org/1999/xlink" width="19.608" height="20.69" viewBox="0 0 19.608 20.69">
  <defs>
    <clipPath id="clip-path">
      <rect id="Rectangle_1331" data-name="Rectangle 1331" width="19.608" height="20.69" transform="translate(0 0)" fill="none" stroke="#4d2f82" stroke-width="1"/>
    </clipPath>
  </defs>
  <g id="Group_3447" data-name="Group 3447" clip-path="url(#clip-path)">
    <path id="Path_1744" data-name="Path 1744" d="M16.917,5.959H3.354a2.6,2.6,0,0,1,0-5.209H15.039a1.878,1.878,0,0,1,1.878,1.879Z" fill="none" stroke="#4d2f82" stroke-width="1.5"/>
    <path id="Path_1745" data-name="Path 1745" d="M18.855,15.552H13.981a2.6,2.6,0,0,1-1.84-4.442,2.574,2.574,0,0,1,1.84-.77h4.874" fill="none" stroke="#4d2f82" stroke-width="1.5"/>
    <path id="Path_1746" data-name="Path 1746" d="M3.354,5.959H16.98a1.878,1.878,0,0,1,1.878,1.878V18.062a1.878,1.878,0,0,1-1.878,1.879H2.628A1.878,1.878,0,0,1,.75,18.062V3.355" fill="none" stroke="#4d2f82" stroke-width="1.5"/>
    <path id="Path_1747" data-name="Path 1747" d="M15.042,12.982a1.008,1.008,0,1,1-1.008-1.008,1.008,1.008,0,0,1,1.008,1.008" fill="#4d2f82"/>
  </g>
</svg>
