<svg xmlns="http://www.w3.org/2000/svg" width="27" height="27.828" viewBox="0 0 27 27.828"><defs><style>.a,.b{fill:#e2004d;}.a{fill-rule:evenodd;}</style></defs><g transform="translate(-501 -610)"><g transform="translate(501 610)"><g transform="translate(0 0)"><path class="a" d="M97.922,90.3l4.491-1.551a2.222,2.222,0,0,1,2.888,1.59l3.327,14.087a2.214,2.214,0,0,1-1.409,2.6l-1.831.661a2.218,2.218,0,0,1-2.778-1.172l-5.988-13.2a2.222,2.222,0,0,1,1.3-3.019Z" transform="translate(-96.418 -88.617)"/><circle class="b" cx="3.301" cy="3.301" r="3.301" transform="translate(7.67 21.382) rotate(-12.509)"/><path class="a" d="M370.441,190.669c-.061.031-.615.235-1.2.433a1.985,1.985,0,0,0-1.191,2.526l.709,2.083a1.947,1.947,0,0,0,2.6,1.215,9.992,9.992,0,0,0,7.38-10.027,10.26,10.26,0,0,0-8.128-9.754,12.206,12.206,0,0,0-4.443-.089,1.757,1.757,0,0,0-1.075.449,1.117,1.117,0,0,0-.193.921l.865,3.992a1.053,1.053,0,0,0,1.213.829,6.854,6.854,0,0,1,2.165-.074,3.944,3.944,0,0,1,3.4,3.8A3.624,3.624,0,0,1,370.441,190.669Z" transform="translate(-351.746 -172.58)"/></g></g></g></svg>