<svg xmlns="http://www.w3.org/2000/svg" width="28.004" height="28" viewBox="0 0 28.004 28"><defs><style>.a{fill:#5719a0;}.b{fill:#be1f93;}</style></defs><g transform="translate(0.006)"><g transform="translate(-0.006)"><path class="a" d="M15.164,33H.581A.591.591,0,0,1,0,32.347L2.331,12.513A.583.583,0,0,1,2.914,12h17.5a.583.583,0,0,1,.583.513l.694,5.868-1.167.14-.63-5.355H3.433l-2.2,18.667h13.93Z" transform="translate(0.006 -5)"/><path class="a" d="M21.5,11.083H20.333V4.667a3.5,3.5,0,0,0-3.5-3.5H15.667a3.5,3.5,0,0,0-3.5,3.5v6.417H11V4.667A4.667,4.667,0,0,1,15.667,0h1.167A4.667,4.667,0,0,1,21.5,4.667Z" transform="translate(-4.58 0)"/><rect class="a" width="3" height="1" transform="translate(15 11)"/><rect class="a" width="9" height="1" transform="translate(3 23)"/><rect class="a" width="4" height="1" transform="translate(5 11)"/><path class="a" d="M29.584,37.167A7.583,7.583,0,1,1,34.6,23.9l-.77.875A6.417,6.417,0,1,0,36,29.583v-.542l1.167-.093v.636a7.583,7.583,0,0,1-7.583,7.583Z" transform="translate(-9.163 -9.167)"/><path class="b" d="M31.2,36.288a.583.583,0,0,1-.414-.169l-3.5-3.5.828-.828L31.2,34.882,37.79,28.29l.828.828-7,7A.583.583,0,0,1,31.2,36.288Z" transform="translate(-11.367 -11.787)"/></g></g></svg>