<svg xmlns="http://www.w3.org/2000/svg" xmlns:xlink="http://www.w3.org/1999/xlink" width="64" height="64" viewBox="0 0 64 64"><defs><style>.a{fill:url(#a);}.b{fill:#fff;}</style><linearGradient id="a" x1="0.5" x2="0.5" y2="1" gradientUnits="objectBoundingBox"><stop offset="0" stop-color="#fedf65"/><stop offset="1" stop-color="#ff7526"/></linearGradient></defs><g transform="translate(-491 -353)"><circle class="a" cx="32" cy="32" r="32" transform="translate(491 353)"/><g transform="matrix(0.883, -0.469, 0.469, 0.883, 498, 373.154)"><path class="b" d="M29.377,34.361A17.208,17.208,0,0,1,.108,20.282a1.721,1.721,0,1,1,3.42.382,13.775,13.775,0,1,0,6.523-10.218L15.733,11.9a1.721,1.721,0,0,1-.425,3.388,1.663,1.663,0,0,1-.427-.054L3.783,12.4,6.619,1.3a1.721,1.721,0,1,1,3.334.852L8.646,7.266a17.209,17.209,0,0,1,20.732,27.1Z" transform="translate(0 0)"/></g></g></svg>