<svg xmlns="http://www.w3.org/2000/svg" xmlns:xlink="http://www.w3.org/1999/xlink" width="64" height="64" viewBox="0 0 64 64"><defs><style>.a{fill:url(#a);}.b{fill:#fff;}</style><linearGradient id="a" x1="0.5" x2="0.5" y2="1" gradientUnits="objectBoundingBox"><stop offset="0" stop-color="#9fc0ff"/><stop offset="1" stop-color="#4282fe"/></linearGradient></defs><g transform="translate(-491 -353)"><circle class="a" cx="32" cy="32" r="32" transform="translate(491 353)"/><g transform="translate(507 365)"><path class="b" d="M35.25,47.623H19.6a8.6,8.6,0,0,1-8.6-8.6V25.775a8.6,8.6,0,0,1,8.6-8.6H35.25a8.6,8.6,0,0,1,8.6,8.6V39.018A8.6,8.6,0,0,1,35.25,47.623ZM19.6,20.3a5.476,5.476,0,0,0-5.476,5.476V39.018A5.476,5.476,0,0,0,19.6,44.494H35.25a5.476,5.476,0,0,0,5.476-5.476V25.775A5.476,5.476,0,0,0,35.25,20.3Z" transform="translate(-11 -9.864)"/><path class="b" d="M38.774,26.847H35.645V16.568a5.609,5.609,0,0,0-5.609-5.609h-1.3a5.609,5.609,0,0,0-5.609,5.609V26.847H20V16.568A8.746,8.746,0,0,1,28.738,7.83h1.306a8.746,8.746,0,0,1,8.73,8.738Z" transform="translate(-12.96 -7.83)"/><ellipse class="b" cx="2.355" cy="2.355" rx="2.355" ry="2.355" transform="translate(21.895 16.545)"/><ellipse class="b" cx="2.355" cy="2.355" rx="2.355" ry="2.355" transform="translate(6.25 16.545)"/></g></g></svg>