<svg xmlns="http://www.w3.org/2000/svg" xmlns:xlink="http://www.w3.org/1999/xlink" width="64" height="64" viewBox="0 0 64 64"><defs><style>.a{fill:url(#a);}.b{fill:#fff;}</style><linearGradient id="a" x1="0.5" x2="0.5" y2="1" gradientUnits="objectBoundingBox"><stop offset="0" stop-color="#8dff36"/><stop offset="1" stop-color="#3abe27"/></linearGradient></defs><g transform="translate(-491 -353)"><circle class="a" cx="32" cy="32" r="32" transform="translate(491 353)"/><g transform="translate(502.667 368.667)"><path class="b" d="M41.994,19.448l-5.333-8a3.993,3.993,0,0,0-3.328-1.781H28V7a4,4,0,0,0-4-4H4A4,4,0,0,0,0,7V21.667a4,4,0,0,0,4,4H4v4a4,4,0,0,0,4,4H9.523a5.308,5.308,0,0,0,10.288,0h7.043a5.308,5.308,0,0,0,10.288,0h1.525a4,4,0,0,0,4-4v-8A3.982,3.982,0,0,0,41.994,19.448ZM4,23a1.333,1.333,0,0,1-1.333-1.333V7A1.333,1.333,0,0,1,4,5.667H24A1.332,1.332,0,0,1,25.333,7V21.667A1.332,1.332,0,0,1,24,23ZM14.668,35a2.667,2.667,0,1,1,2.667-2.667A2.667,2.667,0,0,1,14.668,35ZM32,35a2.667,2.667,0,1,1,2.667-2.667A2.667,2.667,0,0,1,32,35Zm8-5.333A1.332,1.332,0,0,1,38.666,31H37.142a5.308,5.308,0,0,0-10.288,0H19.812A5.308,5.308,0,0,0,9.524,31H8a1.333,1.333,0,0,1-1.333-1.333v-4H24a4,4,0,0,0,4-4V12.333h5.333a1.335,1.335,0,0,1,1.109.593l5.333,8a1.341,1.341,0,0,1,.224.74Z" transform="translate(0 -3)"/></g></g></svg>