<svg xmlns="http://www.w3.org/2000/svg" width="28" height="28" viewBox="0 0 28 28"><defs><style>.a{fill:#fff;}</style></defs><path class="a" d="M24,38.325H6.5a.583.583,0,0,1-.583-.455L3,25.037l1.167-.257,2.8,12.378H23.533l2.8-12.378,1.167.257L24.583,37.87A.583.583,0,0,1,24,38.325Z" transform="translate(-1.25 -10.325)"/><path class="a" d="M38.917,22.667H29V21.5h9.917V19.167H31.333V18h7.583a1.167,1.167,0,0,1,1.167,1.167V21.5A1.167,1.167,0,0,1,38.917,22.667Z" transform="translate(-12.083 -7.5)"/><path class="a" d="M11.083,22.667H1.167A1.167,1.167,0,0,1,0,21.5V19.167A1.167,1.167,0,0,1,1.167,18H8.75v1.167H1.167V21.5h9.917Z" transform="translate(0 -7.5)"/><path class="a" d="M42.333,4.667a2.333,2.333,0,1,1,2.333-2.333A2.333,2.333,0,0,1,42.333,4.667Zm0-3.5A1.167,1.167,0,1,0,43.5,2.333,1.167,1.167,0,0,0,42.333,1.167Z" transform="translate(-16.667)"/><path class="a" d="M2.333,4.667A2.333,2.333,0,1,1,4.667,2.333,2.333,2.333,0,0,1,2.333,4.667Zm0-3.5A1.167,1.167,0,1,0,3.5,2.333,1.167,1.167,0,0,0,2.333,1.167Z"/><rect class="a" width="1.167" height="8.896" transform="translate(2.048 4.151) rotate(-9.46)"/><rect class="a" width="8.896" height="1.167" transform="translate(23.343 12.734) rotate(-80.56)"/><path class="a" d="M18.171,19.25a.583.583,0,0,1-.484-.257L10.1,7.91A.593.593,0,0,1,10.587,7h4.083V0h1.167V7.583a.583.583,0,0,1-.583.583H11.7l6.475,9.467,6.475-9.467H21.087a.583.583,0,0,1-.583-.583V0h1.167V7h4.083a.576.576,0,0,1,.484.892L18.655,18.976A.583.583,0,0,1,18.171,19.25Z" transform="translate(-4.171)"/><rect class="a" width="19.25" height="1.167" transform="translate(4.375 22.167)"/><rect class="a" width="8.458" height="1.167" transform="translate(16.333 18.083)"/><rect class="a" width="8.458" height="1.167" transform="translate(3.208 18.083)"/></svg>