<svg xmlns="http://www.w3.org/2000/svg" width="27" height="27" viewBox="0 0 27 27"><defs><style>.a{fill:#5719a0;}.b{fill:#be1f93;}</style></defs><g transform="translate(0 0)"><path class="a" d="M26.188,31.375H2.563A.563.563,0,0,1,2,30.812V10.563A.562.562,0,0,1,2.563,10H26.188a.563.563,0,0,1,.562.563v20.25A.563.563,0,0,1,26.188,31.375ZM3.125,30.25h22.5V11.125H3.125Z" transform="translate(-0.875 -4.375)"/><path class="a" d="M26.437,6.75H.562A.563.563,0,0,1,0,6.187V.562A.562.562,0,0,1,.563,0H26.437A.562.562,0,0,1,27,.562V6.187A.562.562,0,0,1,26.437,6.75ZM1.125,5.625h24.75v-4.5H1.125Z" transform="translate(0 0)"/><path class="a" d="M23.125,20.5H15.25a2.25,2.25,0,0,1,0-4.5h7.875a2.25,2.25,0,0,1,0,4.5ZM15.25,17.125a1.125,1.125,0,0,0,0,2.25h7.875a1.125,1.125,0,1,0,0-2.25Z" transform="translate(-5.688 -7)"/><rect class="b" width="7" height="1" transform="translate(4 23)"/><rect class="b" width="4" height="1" transform="translate(9 20)"/><rect class="b" width="4" height="1" transform="translate(4 20)"/></g></svg>