<svg xmlns="http://www.w3.org/2000/svg" width="18.204" height="21.514" viewBox="0 0 18.204 21.514">
  <g id="_003-avatar" data-name="003-avatar" transform="translate(-39.385)">
    <g id="Group_3396" data-name="Group 3396" transform="translate(39.385)">
      <path id="Path_1676" data-name="Path 1676" d="M51.731,9.976a5.516,5.516,0,1,0-6.487,0,9.117,9.117,0,0,0-5.859,8.5,3.037,3.037,0,0,0,3.034,3.034H54.555a3.037,3.037,0,0,0,3.034-3.034A9.117,9.117,0,0,0,51.731,9.976Zm-7.1-4.459a3.862,3.862,0,1,1,3.862,3.862A3.866,3.866,0,0,1,44.626,5.516Zm9.93,14.343H42.419A1.381,1.381,0,0,1,41.04,18.48a7.447,7.447,0,1,1,14.895,0A1.381,1.381,0,0,1,54.555,19.859Z" transform="translate(-39.385)" fill="#4d2f82"/>
    </g>
  </g>
</svg>
