<svg xmlns="http://www.w3.org/2000/svg" width="30.756" height="30.752" viewBox="0 0 30.756 30.752"><defs><style>.a{fill:#8c98a2;stroke:#8c98a2;}</style></defs><g transform="translate(0.506 0.5)"><g transform="translate(-0.006)"><path class="a" d="M11.775,29.752a.62.62,0,0,1-.44-.18L.178,18.415a.62.62,0,0,1,0-.88L16.628,1.091A3.719,3.719,0,0,1,19.256,0h6.155A4.339,4.339,0,0,1,29.75,4.339v6.155a3.719,3.719,0,0,1-1.091,2.628L12.215,29.572A.62.62,0,0,1,11.775,29.752ZM1.492,17.975,11.775,28.258l16.01-16.01a2.517,2.517,0,0,0,.725-1.754V4.339a3.1,3.1,0,0,0-3.1-3.1H19.256a2.517,2.517,0,0,0-1.754.725Z" transform="translate(0.006)"/><path class="a" d="M35.1,12.2a3.1,3.1,0,1,1,3.1-3.1,3.1,3.1,0,0,1-3.1,3.1Zm0-4.959A1.859,1.859,0,1,0,36.959,9.1,1.86,1.86,0,0,0,35.1,7.24Z" transform="translate(-12.162 -2.281)"/><rect class="a" width="7.89" height="1.24" transform="translate(11.964 16.917) rotate(-45)"/><rect class="a" width="3.508" height="1.24" transform="translate(8.243 20.639) rotate(-45)"/><rect class="a" width="8.764" height="1.24" transform="translate(10.722 23.116) rotate(-45)"/><rect class="a" width="5.262" height="1.24" transform="translate(11.346 12.578) rotate(-45)"/><rect class="a" width="6.136" height="1.24" transform="translate(5.766 18.158) rotate(-45)"/></g></g></svg>