<svg xmlns="http://www.w3.org/2000/svg" width="24" height="24" viewBox="0 0 24 24"><defs><style>.a{fill:#8c98a2;}</style></defs><g transform="translate(-2 -2)"><g transform="translate(2 2)"><path class="a" d="M10,10A3.991,3.991,0,0,0,7,6.14V3A1,1,0,0,0,5,3V6.14a3.983,3.983,0,0,0,0,7.72V25a1,1,0,0,0,2,0V13.86A3.991,3.991,0,0,0,10,10ZM6,12a2,2,0,1,1,2-2A2.006,2.006,0,0,1,6,12Z" transform="translate(-2 -2)"/><path class="a" d="M11,16.14V3A1,1,0,0,0,9,3V16.14a3.983,3.983,0,0,0,0,7.72V25a1,1,0,0,0,2,0V23.86a3.983,3.983,0,0,0,0-7.72ZM10,22a2,2,0,1,1,2-2A2.006,2.006,0,0,1,10,22Z" transform="translate(2 -2)"/><path class="a" d="M18,8a3.991,3.991,0,0,0-3-3.86V3a1,1,0,0,0-2,0V4.14a3.983,3.983,0,0,0,0,7.72V25a1,1,0,0,0,2,0V11.86A3.991,3.991,0,0,0,18,8Zm-4,2a2,2,0,1,1,2-2A2.006,2.006,0,0,1,14,10Z" transform="translate(6 -2)"/></g></g></svg>