<svg xmlns="http://www.w3.org/2000/svg" width="23.333" height="23.333" viewBox="0 0 23.333 23.333">
  <g id="_x30_1" transform="translate(-2 -2)">
    <g id="Group_948" data-name="Group 948" transform="translate(2 2)">
      <path id="Path_503" data-name="Path 503" d="M21.833,18.333a3.456,3.456,0,0,0-1.5.351l-.963-.963a6.984,6.984,0,0,0,0-8.107l1.987-1.987a2.939,2.939,0,1,0-1.65-1.65L17.72,7.963a6.983,6.983,0,0,0-8.107,0L8.65,7A3.455,3.455,0,0,0,9,5.5,3.5,3.5,0,1,0,5.5,9,3.456,3.456,0,0,0,7,8.649l.963.963a6.984,6.984,0,0,0,0,8.107L5.977,19.707a2.939,2.939,0,1,0,1.65,1.65L9.613,19.37a6.986,6.986,0,0,0,8.108,0l.963.963a3.456,3.456,0,0,0-.35,1.5,3.5,3.5,0,1,0,3.5-3.5Zm.583-14a.583.583,0,1,1-.583.583A.584.584,0,0,1,22.417,4.333ZM4.333,5.5a1.167,1.167,0,1,1,2.333,0,1.122,1.122,0,0,1-.335.809l-.011.01h0l-.01.009a1.12,1.12,0,0,1-.81.336A1.168,1.168,0,0,1,4.333,5.5ZM4.917,23a.583.583,0,1,1,.583-.583A.584.584,0,0,1,4.917,23Zm5.449-6.024a4.692,4.692,0,1,1,3.3,1.357A4.682,4.682,0,0,1,10.366,16.976ZM21.833,23a1.168,1.168,0,0,1-1.167-1.167A1.122,1.122,0,0,1,21,21.024l.011-.01h0l.01-.009a1.12,1.12,0,0,1,.81-.336,1.167,1.167,0,0,1,0,2.333Z" transform="translate(-2 -2)" fill="#8c98a2"/>
      <path id="Path_504" data-name="Path 504" d="M11.933,11.023a.737.737,0,0,0-.21.069.889.889,0,0,0-.211.105,1.791,1.791,0,0,0-.174.14,1.223,1.223,0,0,0-.338.828,1.166,1.166,0,0,0,.093.443,1.207,1.207,0,0,0,.245.385l.174.14a.889.889,0,0,0,.211.105.757.757,0,0,0,.21.07,1.63,1.63,0,0,0,.234.023A1.23,1.23,0,0,0,12.995,13a1.207,1.207,0,0,0,.245-.385,1.166,1.166,0,0,0,.093-.443,1.228,1.228,0,0,0-.338-.828A1.187,1.187,0,0,0,11.933,11.023Z" transform="translate(-0.5 -0.5)" fill="#8c98a2"/>
    </g>
  </g>
</svg>
