<svg xmlns="http://www.w3.org/2000/svg" width="25.5" height="20.719" viewBox="0 0 19.869 17.809"><defs><style>.a{fill:none;stroke:#8c98a2;stroke-linecap:round;stroke-miterlimit:10;stroke-width:1.5px;}</style></defs><g transform="translate(-2.45 -4.85)"><path class="a" d="M21.316,9.089H3.41a.2.2,0,0,1-.21-.21V6.02a.4.4,0,0,1,.42-.42H21.148a.4.4,0,0,1,.42.42V8.879A.266.266,0,0,1,21.316,9.089Z" transform="translate(0 0)"/><path class="a" d="M21.632,26.72H6.92a.4.4,0,0,1-.42-.42V13.9H22.094V26.3A.494.494,0,0,1,21.632,26.72Z" transform="translate(-1.913 -4.811)"/><path class="a" d="M22.446,23.138H16.519A1.22,1.22,0,0,1,15.3,21.919h0A1.22,1.22,0,0,1,16.519,20.7h5.927a1.22,1.22,0,0,1,1.219,1.219h0A1.248,1.248,0,0,1,22.446,23.138Z" transform="translate(-7.014 -8.753)"/></g></svg>