<svg xmlns="http://www.w3.org/2000/svg" width="27.318" height="21.519" viewBox="0 0 27.318 21.519"><g transform="translate(-4 -5.759)"><path d="M5.255,20.059l.554,4.835a.986.986,0,0,0,.045.207,3.2,3.2,0,0,0,4.019,2.022,3.149,3.149,0,0,0,2.045-3.973l-.882-2.68h.277l8.278,4.093a1.081,1.081,0,0,0,.475.11,1.069,1.069,0,0,0,.558-.157,1.047,1.047,0,0,0,.506-.894V19.27a4.171,4.171,0,0,0,0-8.107V6.811a1.05,1.05,0,0,0-.5-.894,1.071,1.071,0,0,0-1.034-.046L11.314,9.963h-4a5.244,5.244,0,0,0-2.059,10.1ZM9.9,23.8a1.048,1.048,0,0,1-.681,1.324,1.067,1.067,0,0,1-1.308-.59L7.44,20.47H8.8Zm12.3-8.584a2.091,2.091,0,0,1-1.063,1.809V13.408A2.088,2.088,0,0,1,22.193,15.216ZM19,21.922,12.628,18.77V11.663L19,8.511ZM7.314,12.064H10.5v6.3H7.314a3.152,3.152,0,1,1,0-6.3Z" transform="translate(2)" fill="#b1bcdb"/><path d="M27,15.76h2a1,1,0,0,0,0-2H27a1,1,0,0,0,0,2Z" transform="translate(1.318 0.45)" fill="#b1bcdb"/><path d="M27,10.467a1,1,0,0,0,.707-.293L29.121,8.76a1,1,0,1,0-1.414-1.414L26.293,8.76A1,1,0,0,0,27,10.467Z" transform="translate(1.318)" fill="#b1bcdb"/><path d="M27.707,22.174a1,1,0,0,0,1.414-1.414l-1.414-1.414a1,1,0,1,0-1.414,1.414Z" transform="translate(1.318 0.809)" fill="#b1bcdb"/></g></svg>