<svg xmlns="http://www.w3.org/2000/svg" width="22" height="22.315" viewBox="0 0 22 22.315"><defs><style>.a{fill:#536777;}</style></defs><g transform="translate(-55.87 -52.99)"><g transform="translate(55.87 52.99)"><path class="a" d="M67.027,75.305A11.144,11.144,0,0,0,77.843,66.9a.879.879,0,0,0-1.339-.949,7.1,7.1,0,0,1-8.46-11.391A.88.88,0,0,0,67.522,53c-.163-.007-.33-.011-.495-.011a11.157,11.157,0,0,0,0,22.315ZM65.345,54.9A8.866,8.866,0,0,0,75.4,68.43,9.4,9.4,0,1,1,65.345,54.9Z" transform="translate(-55.87 -52.99)"/></g></g></svg>