<svg id="Layer_30" data-name="Layer 30" xmlns="http://www.w3.org/2000/svg" width="19.004" height="23.751" viewBox="0 0 19.004 23.751">
  <path id="Path_300" data-name="Path 300" d="M22.21,22.209H4.792a.792.792,0,0,1-.7-1.148,14.362,14.362,0,0,0,1.5-6.334V11.917a7.917,7.917,0,0,1,15.834,0v2.795a14.362,14.362,0,0,0,1.5,6.334.792.792,0,0,1-.7,1.164ZM6.019,20.626H20.983a15.945,15.945,0,0,1-1.148-5.914V11.917a6.334,6.334,0,0,0-12.667,0v2.795a15.945,15.945,0,0,1-1.148,5.914Z" transform="translate(-4.003 -1.625)" fill="#4d2f82"/>
  <path id="Path_301" data-name="Path 301" d="M14.959,29.75A3.959,3.959,0,0,1,11,25.792a.792.792,0,0,1,1.583,0,2.375,2.375,0,0,0,.7,1.678,2.438,2.438,0,0,0,3.357,0,.795.795,0,1,1,1.124,1.124A3.959,3.959,0,0,1,14.959,29.75Z" transform="translate(-5.46 -5.999)" fill="#4d2f82"/>
  <path id="Path_302" data-name="Path 302" d="M15.792,4.959A.792.792,0,0,1,15,4.167V1.792a.792.792,0,1,1,1.583,0V4.167A.792.792,0,0,1,15.792,4.959Z" transform="translate(-6.294 -1)" fill="#4d2f82"/>
</svg>
