<svg xmlns="http://www.w3.org/2000/svg" width="25.5" height="20.719" viewBox="0 0 18.369 21.111"><defs><style>.a{fill:#8c98a2;}</style></defs><g transform="translate(-11 -7.83)"><path class="a" d="M24.558,34.2H15.811A4.811,4.811,0,0,1,11,29.385v-7.4a4.811,4.811,0,0,1,4.811-4.811h8.747a4.811,4.811,0,0,1,4.811,4.811v7.4A4.811,4.811,0,0,1,24.558,34.2ZM15.811,18.919a3.061,3.061,0,0,0-3.061,3.061v7.4a3.061,3.061,0,0,0,3.061,3.061h8.747a3.061,3.061,0,0,0,3.061-3.061v-7.4a3.061,3.061,0,0,0-3.061-3.061Z" transform="translate(0 -5.255)"/><path class="a" d="M30.5,18.462H28.747V12.715a3.136,3.136,0,0,0-3.136-3.136h-.726a3.136,3.136,0,0,0-3.136,3.136v5.747H20V12.715A4.89,4.89,0,0,1,24.885,7.83h.73A4.89,4.89,0,0,1,30.5,12.715Z" transform="translate(-5.064 0)"/><circle class="a" cx="1.316" cy="1.316" r="1.316" transform="translate(23.241 17.08)"/><circle class="a" cx="1.316" cy="1.316" r="1.316" transform="translate(14.494 17.08)"/></g></svg>