<svg xmlns="http://www.w3.org/2000/svg" width="18.503" height="18.5" viewBox="0 0 18.503 18.5">
  <g id="_5740091_box_delivery_down_download_package_icon" data-name="5740091_box_delivery_down_download_package_icon" transform="translate(-0.996 -1)">
    <path id="Path_472" data-name="Path 472" d="M19.5,5.2a.673.673,0,0,0-.05-.252.538.538,0,0,0,0-.059h0L17.767,1.53a.841.841,0,0,0-.79-.53H2.681a.841.841,0,0,0-.841.639L1,5a.286.286,0,0,0,0,.084A.589.589,0,0,0,1,5.2V18.659a.841.841,0,0,0,.841.841H18.659a.841.841,0,0,0,.841-.841V5.2ZM3.337,2.682H16.455L17.3,4.364H2.917ZM17.818,17.818H2.681V6.045H17.818Z" transform="translate(0)" fill="#8c98a2"/>
    <path id="Path_473" data-name="Path 473" d="M10.913,17.266a.841.841,0,0,0,.925,0l2.523-1.682a.841.841,0,1,0-.925-1.4l-1.219.841V9.841a.841.841,0,0,0-1.682,0V15l-1.219-.841a.841.841,0,0,0-.925,1.4Z" transform="translate(-1.126 -1.273)" fill="#8c98a2"/>
  </g>
</svg>
