<svg xmlns="http://www.w3.org/2000/svg" width="29.675" height="24.224" viewBox="0 0 29.675 24.224"><defs><style>.a{fill:#8c98a2;}</style></defs><g transform="translate(21 -53)"><g transform="translate(-21 53)"><path class="a" d="M2.619,77.224H-17.366A3.633,3.633,0,0,1-21,73.591V53.606A.606.606,0,0,1-20.394,53h1.211a.606.606,0,0,1,.606.606V73.591A1.212,1.212,0,0,0-17.366,74.8H2.619a.606.606,0,0,1,.606.606v1.211A.606.606,0,0,1,2.619,77.224Z" transform="translate(21 -53)"/></g><g transform="translate(-15.549 56.028)"><path class="a" d="M-15.467,71.068l-.855-.855a.605.605,0,0,1,0-.858l8.761-8.761a3.644,3.644,0,0,1,5.138,0l.813.814a1.237,1.237,0,0,0,1.713,0l5.732-5.733a.606.606,0,0,1,.858,0l.855.855a.605.605,0,0,1,0,.858L1.814,63.123a3.644,3.644,0,0,1-5.138,0l-.813-.814a1.237,1.237,0,0,0-1.713,0l-8.76,8.761A.606.606,0,0,1-15.467,71.068Z" transform="translate(16.5 -55.5)"/></g></g></svg>