<svg xmlns="http://www.w3.org/2000/svg" width="25.5" height="20.719" viewBox="0 0 25.5 20.719">
  <g id="truck_1_" transform="translate(0 -3)">
    <path id="Path_457" data-name="Path 457" d="M25.1,12.83,21.911,8.049a2.386,2.386,0,0,0-1.989-1.065H16.734V5.391A2.394,2.394,0,0,0,14.344,3H2.391A2.394,2.394,0,0,0,0,5.391v8.766a2.394,2.394,0,0,0,2.391,2.391h0v2.391a2.394,2.394,0,0,0,2.391,2.391h.91a3.172,3.172,0,0,0,6.149,0h4.209a3.172,3.172,0,0,0,6.149,0h.912A2.394,2.394,0,0,0,25.5,18.938V14.156A2.38,2.38,0,0,0,25.1,12.83ZM2.391,14.953a.8.8,0,0,1-.8-.8V5.391a.8.8,0,0,1,.8-.8H14.344a.8.8,0,0,1,.8.8v8.766a.8.8,0,0,1-.8.8Zm6.376,7.172a1.594,1.594,0,1,1,1.594-1.594A1.594,1.594,0,0,1,8.766,22.125Zm10.359,0a1.594,1.594,0,1,1,1.594-1.594A1.594,1.594,0,0,1,19.125,22.125Zm4.781-3.187a.8.8,0,0,1-.8.8H22.2a3.172,3.172,0,0,0-6.149,0H11.841a3.172,3.172,0,0,0-6.149,0H4.781a.8.8,0,0,1-.8-.8V16.547H14.344a2.394,2.394,0,0,0,2.391-2.391V8.578h3.188a.8.8,0,0,1,.663.355l3.188,4.781a.8.8,0,0,1,.134.442Z" fill="#8c98a2"/>
  </g>
</svg>
