<svg xmlns="http://www.w3.org/2000/svg" width="25.5" height="20.719" viewBox="0 0 21.505 20.671"><defs><style>.a{fill:none;stroke:#8c98a2;stroke-linecap:round;stroke-linejoin:round;stroke-miterlimit:10;stroke-width:1.5px;}</style></defs><g transform="translate(-1670.25 -1300.25)"><path class="a" d="M23.338,17v9.169H5V17" transform="translate(1666.833 1294.003)"/><line class="a" y2="9.179" transform="translate(1678.767 1310.885)"/><path class="a" d="M24.005,10.835H4L6.5,5h15Z" transform="translate(1667 1296)"/><path class="a" d="M15.334,17h0A3.344,3.344,0,0,1,12,13.667V12h6.668v1.667A3.344,3.344,0,0,1,15.334,17Z" transform="translate(1665.668 1294.835)"/><path class="a" d="M7.334,17h0A3.344,3.344,0,0,1,4,13.667V12h6.668v1.667A3.344,3.344,0,0,1,7.334,17Z" transform="translate(1667 1294.835)"/><path class="a" d="M23.334,17h0A3.344,3.344,0,0,1,20,13.667V12h6.668v1.667A3.344,3.344,0,0,1,23.334,17Z" transform="translate(1664.337 1294.835)"/><line class="a" transform="translate(1675.942 1315.827)"/></g></svg>