<svg xmlns="http://www.w3.org/2000/svg" width="20.487" height="28.585" viewBox="0 0 20.487 28.585"><defs><style>.a{fill:#8c98a2;stroke:#8c98a2;}</style></defs><g transform="translate(-409.579 1.421)"><g transform="translate(410.907 -0.921)"><path class="a" d="M422.309,23.555a.594.594,0,0,1-.607-.508.576.576,0,0,1,.551-.611l6.282-.547V.273c-2.413,0-5.324-.019-8.219-.037C417.215.219,414.134.2,411.707.2a.587.587,0,0,1-.61-.561.587.587,0,0,1,.61-.561c2.428,0,5.513.017,8.618.036,3.139.018,6.3.037,8.82.037a.588.588,0,0,1,.61.561V22.4a.582.582,0,0,1-.553.558l-6.833.6Z" transform="translate(-411.097 0.921)"/></g><g transform="translate(410.077 -0.843)"><path class="a" d="M421.748,26.682a.7.7,0,0,1-.163-.02l-11.058-2.844a.576.576,0,0,1-.448-.546l0-4.857c0-5.542,0-10.955.024-16.372a6.59,6.59,0,0,1,.308-1.711c.063-.235.127-.468.179-.7a.572.572,0,0,1,.305-.385.658.658,0,0,1,.514-.031c1.876.676,3.6,1.247,5.26,1.8s3.408,1.133,5.3,1.815a.567.567,0,0,1,.39.526v22.76a.553.553,0,0,1-.241.45A.642.642,0,0,1,421.748,26.682ZM411.3,22.842l9.837,2.53V3.744c-1.727-.616-3.329-1.149-4.881-1.665-1.475-.49-3-1-4.633-1.577-.011.036-.019.072-.028.107a5.752,5.752,0,0,0-.271,1.438c-.029,5.415-.026,10.827-.024,16.365Z" transform="translate(-410.077 0.826)"/></g></g></svg>